<svg xmlns="http://www.w3.org/2000/svg" xmlns:xlink="http://www.w3.org/1999/xlink" width="500" zoomAndPan="magnify" viewBox="0 0 375 374.999991" height="500" preserveAspectRatio="xMidYMid meet" version="1.0"><defs><g/><clipPath id="id1"><path d="M 48 140.199219 L 107 140.199219 L 107 204 L 48 204 Z M 48 140.199219 " clip-rule="nonzero"/></clipPath><clipPath id="id2"><path d="M 0 201 L 155.25 201 L 155.25 205 L 0 205 Z M 0 201 " clip-rule="nonzero"/></clipPath></defs><g clip-path="url(#id1)"><path fill="#000000" d="M 77.625 196.949219 C 53.5 196.949219 50.921875 195.175781 50.667969 194.902344 C 50.582031 194.628906 50.5 194.347656 50.425781 194.070312 C 50.648438 194.203125 50.878906 194.320312 51.109375 194.421875 C 51.789062 194.707031 52.480469 194.871094 53.179688 194.980469 C 54.574219 195.203125 55.960938 195.203125 57.339844 195.128906 C 55.960938 195.042969 54.585938 194.871094 53.28125 194.507812 C 52.632812 194.320312 52.003906 194.082031 51.4375 193.757812 C 51.191406 193.617188 50.953125 193.453125 50.746094 193.277344 C 50.910156 193.351562 51.082031 193.425781 51.25 193.492188 C 51.992188 193.765625 52.742188 193.929688 53.5 194.039062 C 55.015625 194.246094 56.527344 194.246094 58.03125 194.167969 C 56.539062 194.082031 55.054688 193.917969 53.628906 193.558594 C 53.585938 193.550781 53.535156 193.539062 53.496094 193.527344 C 52.832031 193.351562 52.191406 193.125 51.601562 192.832031 C 51.53125 192.796875 51.457031 192.761719 51.382812 192.71875 C 51.164062 192.601562 50.960938 192.46875 50.777344 192.320312 C 50.976562 192.40625 51.179688 192.488281 51.382812 192.554688 C 52.183594 192.828125 53.003906 192.984375 53.820312 193.089844 C 55.460938 193.289062 57.097656 193.289062 58.722656 193.210938 C 57.121094 193.125 55.519531 192.960938 53.972656 192.613281 C 53.925781 192.609375 53.875 192.597656 53.828125 192.585938 C 53.117188 192.414062 52.421875 192.199219 51.773438 191.914062 C 51.6875 191.878906 51.609375 191.839844 51.53125 191.796875 C 51.273438 191.675781 51.039062 191.542969 50.8125 191.386719 C 50.800781 191.378906 50.789062 191.367188 50.777344 191.359375 C 51.019531 191.457031 51.269531 191.550781 51.515625 191.621094 C 52.382812 191.890625 53.265625 192.042969 54.144531 192.140625 C 55.902344 192.335938 57.660156 192.328125 59.40625 192.25 C 57.695312 192.171875 55.980469 192.011719 54.320312 191.671875 C 54.269531 191.660156 54.214844 191.652344 54.160156 191.640625 C 53.398438 191.476562 52.644531 191.269531 51.941406 190.988281 C 51.851562 190.953125 51.765625 190.917969 51.675781 190.878906 C 51.402344 190.757812 51.136719 190.625 50.886719 190.476562 C 50.84375 190.453125 50.808594 190.421875 50.765625 190.398438 C 51.0625 190.515625 51.355469 190.613281 51.652344 190.691406 C 52.585938 190.953125 53.523438 191.09375 54.464844 191.191406 C 56.34375 191.378906 58.230469 191.371094 60.097656 191.292969 C 58.273438 191.214844 56.449219 191.054688 54.671875 190.726562 C 54.609375 190.714844 54.554688 190.703125 54.496094 190.695312 C 53.683594 190.539062 52.875 190.335938 52.105469 190.0625 C 52.015625 190.027344 51.917969 189.996094 51.828125 189.960938 C 51.523438 189.84375 51.234375 189.71875 50.960938 189.566406 C 50.878906 189.527344 50.808594 189.480469 50.734375 189.429688 C 51.082031 189.566406 51.433594 189.667969 51.789062 189.757812 C 52.785156 190.007812 53.785156 190.148438 54.785156 190.242188 C 56.792969 190.421875 58.792969 190.417969 60.789062 190.335938 C 58.847656 190.253906 56.914062 190.101562 55.015625 189.785156 C 54.957031 189.773438 54.894531 189.765625 54.835938 189.753906 C 53.960938 189.59375 53.101562 189.40625 52.277344 189.144531 C 52.171875 189.109375 52.070312 189.070312 51.964844 189.035156 C 51.652344 188.925781 51.328125 188.796875 51.03125 188.65625 C 50.90625 188.597656 50.785156 188.53125 50.664062 188.464844 C 50.65625 188.457031 50.648438 188.457031 50.648438 188.457031 C 51.070312 188.609375 51.492188 188.730469 51.925781 188.828125 C 52.984375 189.070312 54.046875 189.207031 55.109375 189.296875 C 57.234375 189.46875 59.359375 189.457031 61.476562 189.375 C 59.363281 189.289062 57.25 189.136719 55.167969 188.808594 C 54.132812 188.640625 53.101562 188.425781 52.117188 188.121094 C 51.625 187.964844 51.140625 187.78125 50.699219 187.554688 C 50.480469 187.445312 50.269531 187.320312 50.085938 187.179688 C 49.996094 187.113281 49.910156 187.042969 49.84375 186.964844 C 49.808594 186.933594 49.777344 186.890625 49.753906 186.863281 C 49.742188 186.851562 49.734375 186.835938 49.730469 186.824219 L 49.648438 186.855469 C 49.660156 186.484375 49.675781 186.1875 49.691406 185.980469 L 50.097656 185.980469 C 51.25 187.355469 61.003906 188.109375 77.625 188.109375 C 94.246094 188.109375 104 187.355469 105.152344 185.980469 L 105.558594 185.980469 C 105.574219 186.1875 105.589844 186.484375 105.601562 186.855469 L 105.519531 186.824219 C 105.515625 186.835938 105.503906 186.851562 105.496094 186.863281 C 105.472656 186.890625 105.441406 186.933594 105.40625 186.964844 C 105.339844 187.042969 105.25 187.113281 105.164062 187.179688 C 104.976562 187.320312 104.769531 187.445312 104.546875 187.554688 C 104.109375 187.78125 103.628906 187.964844 103.132812 188.121094 C 102.148438 188.425781 101.117188 188.640625 100.082031 188.808594 C 98 189.136719 95.890625 189.289062 93.769531 189.375 C 95.890625 189.457031 98.015625 189.46875 100.140625 189.296875 C 101.203125 189.207031 102.265625 189.070312 103.324219 188.828125 C 103.757812 188.730469 104.179688 188.609375 104.605469 188.457031 C 104.601562 188.457031 104.59375 188.457031 104.585938 188.464844 C 104.464844 188.53125 104.34375 188.597656 104.21875 188.65625 C 103.921875 188.796875 103.597656 188.925781 103.277344 189.035156 C 103.179688 189.070312 103.078125 189.109375 102.972656 189.144531 C 102.148438 189.40625 101.289062 189.59375 100.414062 189.753906 C 100.355469 189.765625 100.292969 189.773438 100.234375 189.785156 C 98.335938 190.101562 96.402344 190.253906 94.460938 190.335938 C 96.457031 190.417969 98.457031 190.421875 100.464844 190.242188 C 101.464844 190.148438 102.464844 190.007812 103.464844 189.757812 C 103.816406 189.667969 104.167969 189.566406 104.515625 189.429688 C 104.441406 189.480469 104.371094 189.527344 104.289062 189.566406 C 104.015625 189.71875 103.726562 189.84375 103.421875 189.960938 C 103.332031 189.996094 103.234375 190.027344 103.144531 190.0625 C 102.378906 190.335938 101.566406 190.539062 100.75 190.695312 C 100.695312 190.703125 100.640625 190.714844 100.578125 190.726562 C 98.800781 191.054688 96.976562 191.214844 95.152344 191.292969 C 97.019531 191.371094 98.898438 191.378906 100.785156 191.191406 C 101.726562 191.09375 102.664062 190.953125 103.59375 190.691406 C 103.890625 190.613281 104.1875 190.515625 104.484375 190.398438 C 104.441406 190.421875 104.40625 190.453125 104.363281 190.476562 C 104.113281 190.625 103.847656 190.757812 103.574219 190.878906 C 103.484375 190.917969 103.398438 190.953125 103.308594 190.988281 C 102.605469 191.269531 101.851562 191.476562 101.089844 191.640625 C 101.035156 191.652344 100.980469 191.660156 100.929688 191.671875 C 99.269531 192.011719 97.554688 192.171875 95.84375 192.25 C 97.589844 192.328125 99.34375 192.335938 101.105469 192.140625 C 101.984375 192.042969 102.867188 191.890625 103.734375 191.621094 C 103.980469 191.550781 104.230469 191.457031 104.472656 191.359375 C 104.460938 191.367188 104.449219 191.378906 104.4375 191.386719 C 104.21875 191.542969 103.96875 191.675781 103.71875 191.796875 C 103.640625 191.839844 103.554688 191.878906 103.476562 191.914062 C 102.828125 192.199219 102.132812 192.414062 101.421875 192.585938 C 101.375 192.597656 101.324219 192.609375 101.269531 192.613281 C 99.730469 192.960938 98.136719 193.125 96.535156 193.210938 C 98.152344 193.289062 99.789062 193.289062 101.429688 193.089844 C 102.246094 192.984375 103.058594 192.828125 103.867188 192.554688 C 104.070312 192.488281 104.273438 192.40625 104.472656 192.320312 C 104.285156 192.46875 104.085938 192.601562 103.867188 192.71875 C 103.792969 192.761719 103.71875 192.796875 103.648438 192.832031 C 103.054688 193.125 102.417969 193.351562 101.753906 193.527344 C 101.714844 193.539062 101.664062 193.550781 101.621094 193.558594 C 100.195312 193.917969 98.703125 194.082031 97.21875 194.167969 C 98.722656 194.246094 100.234375 194.246094 101.75 194.039062 C 102.507812 193.929688 103.257812 193.765625 104 193.492188 C 104.167969 193.425781 104.339844 193.351562 104.503906 193.277344 C 104.296875 193.453125 104.066406 193.617188 103.8125 193.757812 C 103.246094 194.082031 102.617188 194.320312 101.96875 194.507812 C 100.664062 194.871094 99.289062 195.042969 97.910156 195.128906 C 99.289062 195.203125 100.675781 195.203125 102.070312 194.980469 C 102.761719 194.871094 103.460938 194.707031 104.140625 194.421875 C 104.371094 194.320312 104.601562 194.203125 104.824219 194.070312 C 104.746094 194.347656 104.667969 194.628906 104.582031 194.902344 C 104.328125 195.175781 101.75 196.949219 77.625 196.949219 Z M 56.441406 180.664062 C 57.285156 180.714844 58.089844 181.019531 58.765625 181.53125 C 59.59375 182.167969 60.0625 182.898438 60.164062 183.707031 C 60.203125 183.984375 60.117188 184.269531 59.933594 184.480469 C 59.746094 184.695312 59.484375 184.816406 59.203125 184.824219 C 57.230469 184.859375 52.601562 184.847656 50.691406 184.039062 L 50.691406 179.863281 C 51.640625 180.0625 54.046875 180.519531 56.441406 180.664062 Z M 50.667969 185.742188 L 50.328125 185.613281 L 50.6875 185.613281 C 50.691406 185.652344 50.6875 185.691406 50.667969 185.742188 Z M 54.554688 172.886719 C 56.691406 171.675781 58.957031 171.394531 60.121094 171.339844 L 61.4375 186.058594 C 61.476562 186.4375 61.621094 186.777344 61.84375 187.058594 C 52.46875 186.59375 50.933594 185.761719 50.691406 185.546875 L 50.691406 184.566406 C 52.390625 185.1875 55.59375 185.320312 57.988281 185.320312 C 58.429688 185.320312 58.84375 185.320312 59.214844 185.316406 C 59.632812 185.304688 60.027344 185.121094 60.304688 184.804688 C 60.578125 184.480469 60.707031 184.0625 60.652344 183.648438 C 60.535156 182.703125 60 181.859375 59.0625 181.144531 C 58.308594 180.5625 57.414062 180.226562 56.472656 180.171875 C 54.023438 180.027344 51.558594 179.546875 50.699219 179.363281 C 50.757812 176.679688 52.222656 174.207031 54.554688 172.886719 Z M 60.488281 160.339844 C 60.183594 159.890625 59.714844 159.578125 59.1875 159.464844 L 55.507812 158.652344 C 54.78125 158.5 54.257812 157.851562 54.257812 157.109375 L 54.257812 149.96875 C 54.257812 149.65625 54.390625 149.359375 54.617188 149.152344 C 54.839844 148.9375 55.148438 148.828125 55.453125 148.851562 L 57.164062 148.980469 L 57.1875 148.980469 C 57.769531 148.980469 58.332031 148.992188 58.875 149.003906 C 59.746094 149.03125 60.578125 149.046875 61.449219 149.019531 L 61.476562 149.589844 L 61.476562 160 C 61.269531 160.308594 61.085938 160.644531 60.929688 160.984375 Z M 61.960938 147.472656 C 62.203125 147.214844 62.535156 147.046875 62.875 147.003906 C 63.234375 146.976562 63.628906 146.972656 64.003906 146.953125 C 65.527344 146.886719 67.035156 146.820312 68.558594 146.734375 C 70.074219 146.65625 71.585938 146.550781 73.105469 146.46875 L 75.375 146.316406 C 76.140625 146.261719 76.878906 146.199219 77.625 146.207031 C 78 146.207031 78.371094 146.21875 78.742188 146.234375 L 79.875 146.308594 L 82.144531 146.46875 C 83.664062 146.550781 85.175781 146.65625 86.699219 146.734375 C 88.207031 146.8125 89.722656 146.886719 91.246094 146.953125 C 91.617188 146.972656 92.015625 146.976562 92.367188 147.003906 C 92.714844 147.046875 93.046875 147.214844 93.289062 147.472656 C 93.488281 147.683594 93.621094 147.953125 93.683594 148.238281 L 77.625 147.257812 L 61.566406 148.238281 C 61.628906 147.953125 61.761719 147.683594 61.960938 147.472656 Z M 67.210938 143.84375 C 67.292969 144.578125 67.910156 145.144531 68.660156 145.144531 C 69.417969 145.144531 70.039062 144.578125 70.117188 143.84375 C 70.09375 144.628906 69.449219 145.25 68.660156 145.25 C 67.878906 145.25 67.238281 144.628906 67.210938 143.84375 Z M 68.660156 142.472656 C 69.378906 142.472656 69.953125 143.050781 69.953125 143.765625 C 69.953125 144.484375 69.378906 145.0625 68.660156 145.0625 C 67.953125 145.0625 67.375 144.484375 67.375 143.765625 C 67.375 143.050781 67.953125 142.472656 68.660156 142.472656 Z M 72.644531 142.707031 C 72.765625 143.746094 73.648438 144.5625 74.71875 144.5625 C 75.792969 144.5625 76.671875 143.746094 76.789062 142.707031 C 76.746094 143.820312 75.835938 144.707031 74.71875 144.707031 C 73.597656 144.707031 72.6875 143.820312 72.644531 142.707031 Z M 74.71875 140.757812 C 75.734375 140.757812 76.550781 141.578125 76.550781 142.59375 C 76.550781 143.613281 75.734375 144.441406 74.71875 144.441406 C 73.707031 144.441406 72.882812 143.613281 72.882812 142.59375 C 72.882812 141.578125 73.707031 140.757812 74.71875 140.757812 Z M 78.457031 142.707031 C 78.578125 143.746094 79.457031 144.5625 80.53125 144.5625 C 81.601562 144.5625 82.484375 143.746094 82.605469 142.707031 C 82.554688 143.820312 81.652344 144.707031 80.53125 144.707031 C 79.40625 144.707031 78.503906 143.820312 78.457031 142.707031 Z M 80.53125 140.757812 C 81.542969 140.757812 82.363281 141.578125 82.363281 142.59375 C 82.363281 143.613281 81.542969 144.441406 80.53125 144.441406 C 79.515625 144.441406 78.691406 143.613281 78.691406 142.59375 C 78.691406 141.578125 79.515625 140.757812 80.53125 140.757812 Z M 85.132812 143.84375 C 85.210938 144.578125 85.832031 145.144531 86.589844 145.144531 C 87.339844 145.144531 87.957031 144.578125 88.039062 143.84375 C 88.011719 144.628906 87.371094 145.25 86.589844 145.25 C 85.800781 145.25 85.15625 144.628906 85.132812 143.84375 Z M 86.589844 142.472656 C 87.296875 142.472656 87.875 143.050781 87.875 143.765625 C 87.875 144.484375 87.296875 145.0625 86.589844 145.0625 C 85.871094 145.0625 85.296875 144.484375 85.296875 143.765625 C 85.296875 143.050781 85.871094 142.472656 86.589844 142.472656 Z M 96.332031 149.003906 C 96.875 148.992188 97.4375 148.980469 98.019531 148.980469 L 99.753906 148.851562 C 100.058594 148.828125 100.367188 148.9375 100.589844 149.144531 C 100.816406 149.359375 100.941406 149.65625 100.941406 149.96875 L 100.941406 157.109375 C 100.941406 157.851562 100.421875 158.5 99.699219 158.652344 L 96.019531 159.464844 C 95.492188 159.578125 95.023438 159.890625 94.714844 160.339844 L 94.300781 160.949219 C 94.144531 160.621094 93.96875 160.304688 93.769531 160 L 93.769531 149.597656 L 93.800781 149.019531 C 94.652344 149.046875 95.472656 149.03125 96.332031 149.003906 Z M 62.085938 166.9375 C 62.25 166.753906 62.480469 166.660156 62.71875 166.660156 L 63.453125 166.660156 L 65.082031 183.734375 L 64.386719 166.660156 L 66.878906 166.660156 L 68.21875 183.734375 L 67.8125 166.660156 L 70.304688 166.660156 L 71.355469 183.734375 L 71.238281 166.660156 L 73.730469 166.660156 L 74.488281 183.734375 L 74.664062 166.660156 L 77.15625 166.660156 L 77.625 183.734375 L 78.09375 166.660156 L 80.585938 166.660156 L 80.761719 183.734375 L 81.519531 166.660156 L 84.011719 166.660156 L 83.894531 183.734375 L 84.945312 166.660156 L 87.4375 166.660156 L 87.023438 183.734375 L 88.371094 166.660156 L 90.863281 166.660156 L 90.160156 183.734375 L 91.796875 166.660156 L 92.523438 166.660156 C 92.769531 166.660156 93 166.753906 93.164062 166.9375 C 93.320312 167.113281 93.398438 167.351562 93.378906 167.589844 L 91.847656 184.726562 C 91.796875 185.253906 91.355469 185.65625 90.828125 185.65625 L 64.421875 185.65625 C 63.890625 185.65625 63.453125 185.253906 63.402344 184.726562 L 61.871094 167.589844 C 61.84375 167.351562 61.929688 167.113281 62.085938 166.9375 Z M 64.105469 164.242188 C 63.980469 164.1875 63.851562 164.125 63.730469 164.058594 L 67.382812 163.90625 L 63.226562 163.730469 C 63.179688 163.699219 63.132812 163.65625 63.089844 163.621094 L 67.699219 163.4375 L 62.671875 163.242188 C 62.664062 163.238281 62.65625 163.230469 62.652344 163.226562 C 62.640625 163.214844 62.628906 163.195312 62.617188 163.175781 L 68.011719 162.976562 L 62.28125 162.757812 C 62.277344 162.75 62.265625 162.738281 62.257812 162.726562 L 68.335938 162.511719 L 61.984375 162.28125 C 61.984375 162.277344 61.984375 162.277344 61.984375 162.277344 L 68.648438 162.042969 L 61.871094 161.8125 L 68.964844 161.582031 L 61.882812 161.351562 L 69.285156 161.113281 L 61.898438 160.882812 L 69.601562 160.648438 L 61.917969 160.417969 L 69.917969 160.1875 L 62.53125 159.96875 L 92.71875 159.96875 L 85.332031 160.1875 L 93.332031 160.417969 L 85.648438 160.648438 L 93.351562 160.882812 L 85.964844 161.113281 L 93.363281 161.351562 L 86.277344 161.582031 L 93.378906 161.8125 L 86.601562 162.042969 L 93.265625 162.277344 C 93.265625 162.277344 93.257812 162.277344 93.257812 162.28125 L 86.914062 162.511719 L 92.992188 162.726562 C 92.984375 162.738281 92.980469 162.75 92.96875 162.757812 L 87.230469 162.976562 L 92.632812 163.175781 C 92.621094 163.195312 92.609375 163.214844 92.597656 163.226562 C 92.59375 163.230469 92.585938 163.238281 92.578125 163.242188 L 87.550781 163.4375 L 92.160156 163.621094 C 92.117188 163.65625 92.070312 163.699219 92.023438 163.730469 L 87.867188 163.90625 L 91.519531 164.058594 C 91.398438 164.125 91.269531 164.1875 91.144531 164.242188 L 88.183594 164.371094 L 90.433594 164.46875 C 90.117188 164.546875 89.796875 164.582031 89.460938 164.582031 C 86.546875 164.582031 82.082031 164.582031 77.625 164.582031 C 73.160156 164.582031 68.703125 164.582031 65.789062 164.582031 C 65.453125 164.582031 65.132812 164.546875 64.8125 164.46875 L 67.066406 164.371094 Z M 78.117188 150.878906 L 87.722656 150.878906 C 90.203125 150.878906 92.210938 152.902344 92.210938 155.390625 L 92.210938 159.292969 L 78.117188 159.292969 Z M 63.039062 155.390625 C 63.039062 152.902344 65.046875 150.878906 67.527344 150.878906 L 77.132812 150.878906 L 77.132812 159.292969 L 63.039062 159.292969 Z M 77.074219 150.003906 C 75.859375 150.105469 74.640625 150.160156 73.421875 150.191406 C 72.210938 150.234375 70.992188 150.246094 69.777344 150.246094 L 67.953125 150.234375 L 67.035156 150.222656 C 66.75 150.21875 66.460938 150.242188 66.175781 150.296875 C 65.046875 150.535156 63.929688 151.195312 63.375 152.296875 C 63.542969 151.703125 63.945312 151.183594 64.417969 150.78125 C 64.902344 150.382812 65.472656 150.089844 66.089844 149.925781 C 66.398438 149.84375 66.714844 149.796875 67.035156 149.789062 L 67.953125 149.773438 L 69.777344 149.761719 C 70.992188 149.765625 72.210938 149.773438 73.421875 149.816406 C 74.640625 149.851562 75.859375 149.898438 77.074219 150.003906 Z M 100.695312 172.886719 C 103.023438 174.207031 104.492188 176.679688 104.550781 179.355469 C 103.714844 179.53125 101.226562 180.027344 98.757812 180.171875 C 97.8125 180.226562 96.917969 180.5625 96.164062 181.144531 C 95.230469 181.859375 94.695312 182.703125 94.574219 183.648438 C 94.519531 184.0625 94.652344 184.480469 94.925781 184.804688 C 95.199219 185.121094 95.601562 185.304688 96.019531 185.316406 C 96.386719 185.320312 96.800781 185.320312 97.238281 185.320312 C 99.644531 185.320312 102.867188 185.1875 104.558594 184.554688 L 104.558594 185.546875 C 104.316406 185.761719 102.78125 186.59375 93.40625 187.058594 C 93.628906 186.777344 93.773438 186.4375 93.8125 186.058594 L 95.128906 171.339844 C 96.285156 171.394531 98.554688 171.675781 100.695312 172.886719 Z M 104.558594 184.03125 C 102.664062 184.847656 98 184.859375 96.023438 184.824219 C 95.746094 184.816406 95.480469 184.695312 95.296875 184.480469 C 95.109375 184.269531 95.023438 183.984375 95.058594 183.707031 C 95.164062 182.898438 95.628906 182.167969 96.460938 181.53125 C 97.140625 181.019531 97.941406 180.714844 98.789062 180.664062 C 101.199219 180.519531 103.625 180.050781 104.558594 179.863281 Z M 104.582031 185.742188 C 104.558594 185.691406 104.558594 185.652344 104.558594 185.613281 L 104.921875 185.613281 Z M 106.265625 185.578125 L 106.238281 185.242188 L 105.292969 185.242188 L 105.292969 179.53125 C 105.292969 176.519531 103.664062 173.726562 101.050781 172.246094 C 98.789062 170.960938 96.4375 170.664062 95.195312 170.601562 L 95.449219 167.777344 C 95.460938 167.636719 95.460938 167.5 95.449219 167.363281 C 95.480469 166.414062 95.460938 163.992188 94.636719 161.753906 L 95.320312 160.753906 C 95.527344 160.460938 95.824219 160.253906 96.175781 160.179688 L 99.855469 159.378906 C 100.914062 159.148438 101.675781 158.191406 101.675781 157.109375 L 101.675781 149.96875 C 101.675781 149.449219 101.464844 148.957031 101.089844 148.609375 C 100.710938 148.257812 100.210938 148.082031 99.699219 148.117188 L 98.007812 148.246094 C 97.417969 148.246094 96.855469 148.257812 96.308594 148.273438 C 95.464844 148.292969 94.652344 148.3125 93.816406 148.28125 C 93.785156 147.941406 93.660156 147.613281 93.445312 147.335938 C 93.191406 147.019531 92.824219 146.800781 92.417969 146.722656 C 92.015625 146.667969 91.652344 146.636719 91.269531 146.59375 C 89.808594 146.449219 88.339844 146.300781 86.878906 146.175781 L 87.316406 146.175781 L 87.144531 145.242188 C 87.742188 145.019531 88.160156 144.445312 88.160156 143.765625 C 88.160156 142.894531 87.457031 142.1875 86.589844 142.1875 C 85.714844 142.1875 85.011719 142.894531 85.011719 143.765625 C 85.011719 144.445312 85.429688 145.019531 86.023438 145.242188 L 85.871094 146.082031 C 84.648438 145.972656 83.421875 145.875 82.199219 145.773438 L 81.511719 145.71875 L 81.332031 144.695312 C 82.171875 144.375 82.773438 143.558594 82.773438 142.59375 C 82.773438 141.355469 81.765625 140.34375 80.53125 140.34375 C 79.292969 140.34375 78.285156 141.355469 78.285156 142.59375 C 78.285156 143.558594 78.886719 144.375 79.730469 144.695312 L 79.570312 145.566406 L 78.785156 145.511719 C 78.402344 145.488281 78.007812 145.476562 77.625 145.476562 C 76.96875 145.46875 76.316406 145.515625 75.679688 145.566406 L 75.519531 144.695312 C 76.363281 144.375 76.964844 143.558594 76.964844 142.59375 C 76.964844 141.355469 75.957031 140.34375 74.71875 140.34375 C 73.484375 140.34375 72.476562 141.355469 72.476562 142.59375 C 72.476562 143.558594 73.078125 144.375 73.917969 144.695312 L 73.730469 145.71875 L 73.050781 145.765625 C 71.828125 145.875 70.601562 145.972656 69.378906 146.082031 L 69.226562 145.242188 C 69.820312 145.019531 70.238281 144.445312 70.238281 143.765625 C 70.238281 142.894531 69.535156 142.1875 68.660156 142.1875 C 67.792969 142.1875 67.089844 142.894531 67.089844 143.765625 C 67.089844 144.445312 67.507812 145.019531 68.105469 145.242188 L 67.933594 146.175781 L 68.359375 146.175781 C 66.898438 146.300781 65.441406 146.449219 63.980469 146.59375 C 63.597656 146.636719 63.234375 146.667969 62.832031 146.722656 C 62.425781 146.800781 62.058594 147.019531 61.804688 147.335938 C 61.589844 147.613281 61.464844 147.941406 61.4375 148.28125 C 60.582031 148.3125 59.757812 148.292969 58.890625 148.273438 C 58.351562 148.257812 57.789062 148.246094 57.199219 148.246094 L 55.507812 148.117188 C 55 148.082031 54.488281 148.257812 54.113281 148.609375 C 53.742188 148.957031 53.523438 149.449219 53.523438 149.96875 L 53.523438 157.109375 C 53.523438 158.191406 54.296875 159.148438 55.351562 159.378906 L 59.03125 160.179688 C 59.378906 160.253906 59.679688 160.460938 59.886719 160.753906 L 60.597656 161.792969 C 59.789062 164.023438 59.769531 166.421875 59.800781 167.363281 C 59.789062 167.5 59.789062 167.636719 59.800781 167.777344 L 60.054688 170.601562 C 58.8125 170.664062 56.464844 170.960938 54.199219 172.246094 C 51.585938 173.726562 49.957031 176.519531 49.957031 179.53125 L 49.957031 185.242188 L 49.011719 185.242188 L 48.984375 185.578125 C 48.964844 185.777344 48.523438 190.597656 49.964844 195.109375 C 49.984375 195.195312 50.03125 195.300781 50.140625 195.414062 C 50.378906 195.652344 51.039062 196.011719 52.808594 196.371094 L 52.808594 201.816406 C 52.808594 202.507812 53.367188 203.066406 54.058594 203.066406 L 54.28125 203.066406 L 54.542969 198.214844 L 54.804688 203.066406 L 55.761719 203.066406 L 56.023438 198.214844 L 56.289062 203.066406 L 57.242188 203.066406 L 57.503906 198.214844 L 57.765625 203.066406 L 58.15625 203.066406 C 58.84375 203.066406 59.402344 202.507812 59.402344 201.816406 L 59.402344 197.167969 C 63.46875 197.472656 69.292969 197.683594 77.625 197.683594 C 85.957031 197.683594 91.78125 197.472656 95.847656 197.167969 L 95.847656 201.816406 C 95.847656 202.507812 96.40625 203.066406 97.09375 203.066406 L 97.324219 203.066406 L 97.582031 198.214844 L 97.84375 203.066406 L 98.800781 203.066406 L 99.0625 198.214844 L 99.324219 203.066406 L 100.28125 203.066406 L 100.542969 198.214844 L 100.804688 203.066406 L 101.191406 203.066406 C 101.882812 203.066406 102.441406 202.507812 102.441406 201.816406 L 102.441406 196.371094 C 104.210938 196.011719 104.871094 195.652344 105.109375 195.414062 C 105.21875 195.300781 105.265625 195.195312 105.285156 195.109375 C 106.726562 190.597656 106.285156 185.777344 106.265625 185.578125 " fill-opacity="1" fill-rule="nonzero"/></g><path fill="#000000" d="M 51.382812 179.0625 C 51.652344 178.121094 52.003906 177.246094 52.507812 176.464844 C 53.003906 175.679688 53.640625 175.011719 54.363281 174.433594 C 54.714844 174.140625 55.101562 173.882812 55.5 173.640625 C 55.894531 173.390625 56.316406 173.183594 56.734375 172.976562 C 57.589844 172.574219 58.472656 172.234375 59.402344 171.941406 C 58.425781 171.929688 57.453125 172.125 56.519531 172.449219 C 56.046875 172.597656 55.597656 172.804688 55.15625 173.039062 C 54.71875 173.273438 54.300781 173.550781 53.90625 173.859375 C 53.117188 174.480469 52.453125 175.277344 52.007812 176.179688 C 51.558594 177.085938 51.339844 178.085938 51.382812 179.0625 " fill-opacity="1" fill-rule="nonzero"/><path fill="#000000" d="M 99.75 173.640625 C 100.148438 173.882812 100.53125 174.140625 100.886719 174.433594 C 101.609375 175.011719 102.246094 175.679688 102.742188 176.464844 C 103.242188 177.246094 103.597656 178.121094 103.867188 179.0625 C 103.902344 178.085938 103.691406 177.085938 103.242188 176.179688 C 102.796875 175.277344 102.132812 174.480469 101.34375 173.859375 C 100.949219 173.550781 100.53125 173.273438 100.09375 173.039062 C 99.652344 172.804688 99.203125 172.597656 98.730469 172.449219 C 97.796875 172.125 96.824219 171.929688 95.847656 171.941406 C 96.777344 172.234375 97.660156 172.574219 98.515625 172.976562 C 98.933594 173.183594 99.355469 173.390625 99.75 173.640625 " fill-opacity="1" fill-rule="nonzero"/><path fill="#000000" d="M 56.585938 181.480469 C 57.261719 181.480469 57.8125 182.027344 57.8125 182.710938 C 57.8125 183.386719 57.261719 183.941406 56.585938 183.941406 C 55.90625 183.941406 55.363281 183.386719 55.363281 182.710938 C 55.363281 182.027344 55.90625 181.480469 56.585938 181.480469 Z M 56.585938 184.183594 C 57.394531 184.183594 58.054688 183.519531 58.054688 182.710938 C 58.054688 181.894531 57.394531 181.230469 56.585938 181.230469 C 55.773438 181.230469 55.113281 181.894531 55.113281 182.710938 C 55.113281 183.519531 55.773438 184.183594 56.585938 184.183594 " fill-opacity="1" fill-rule="nonzero"/><path fill="#000000" d="M 57.261719 182.894531 C 57.261719 183.222656 57.109375 183.515625 56.871094 183.707031 C 57.304688 183.582031 57.617188 183.183594 57.617188 182.710938 C 57.617188 182.132812 57.15625 181.667969 56.585938 181.667969 C 56.351562 181.667969 56.136719 181.75 55.960938 181.882812 C 56.042969 181.859375 56.125 181.847656 56.210938 181.847656 C 56.789062 181.847656 57.261719 182.316406 57.261719 182.894531 " fill-opacity="1" fill-rule="nonzero"/><path fill="#000000" d="M 52.5 181.066406 C 53.148438 181.066406 53.683594 181.621094 53.683594 182.308594 C 53.683594 182.992188 53.148438 183.542969 52.5 183.542969 C 51.84375 183.542969 51.316406 182.992188 51.316406 182.308594 C 51.316406 181.621094 51.84375 181.066406 52.5 181.066406 Z M 52.5 183.789062 C 53.28125 183.789062 53.925781 183.125 53.925781 182.308594 C 53.925781 181.488281 53.28125 180.824219 52.5 180.824219 C 51.710938 180.824219 51.070312 181.488281 51.070312 182.308594 C 51.070312 183.125 51.710938 183.789062 52.5 183.789062 " fill-opacity="1" fill-rule="nonzero"/><path fill="#000000" d="M 53.09375 182.492188 C 53.09375 182.84375 52.929688 183.160156 52.675781 183.351562 C 53.15625 183.265625 53.511719 182.824219 53.511719 182.308594 C 53.511719 181.71875 53.058594 181.242188 52.5 181.242188 C 52.269531 181.242188 52.0625 181.324219 51.898438 181.449219 C 51.953125 181.4375 52.015625 181.433594 52.074219 181.433594 C 52.640625 181.433594 53.09375 181.90625 53.09375 182.492188 " fill-opacity="1" fill-rule="nonzero"/><path fill="#000000" d="M 99.871094 182.710938 C 99.871094 183.386719 99.316406 183.941406 98.644531 183.941406 C 97.964844 183.941406 97.417969 183.386719 97.417969 182.710938 C 97.417969 182.027344 97.964844 181.480469 98.644531 181.480469 C 99.316406 181.480469 99.871094 182.027344 99.871094 182.710938 Z M 97.175781 182.710938 C 97.175781 183.519531 97.832031 184.183594 98.644531 184.183594 C 99.457031 184.183594 100.113281 183.519531 100.113281 182.710938 C 100.113281 181.894531 99.457031 181.230469 98.644531 181.230469 C 97.832031 181.230469 97.175781 181.894531 97.175781 182.710938 " fill-opacity="1" fill-rule="nonzero"/><path fill="#000000" d="M 97.605469 182.710938 C 97.605469 183.183594 97.921875 183.582031 98.351562 183.707031 C 98.121094 183.515625 97.972656 183.222656 97.972656 182.894531 C 97.972656 182.316406 98.4375 181.847656 99.015625 181.847656 C 99.097656 181.847656 99.183594 181.859375 99.269531 181.882812 C 99.09375 181.75 98.882812 181.667969 98.644531 181.667969 C 98.066406 181.667969 97.605469 182.132812 97.605469 182.710938 " fill-opacity="1" fill-rule="nonzero"/><path fill="#000000" d="M 102.730469 181.066406 C 103.378906 181.066406 103.914062 181.621094 103.914062 182.308594 C 103.914062 182.992188 103.378906 183.542969 102.730469 183.542969 C 102.078125 183.542969 101.550781 182.992188 101.550781 182.308594 C 101.550781 181.621094 102.078125 181.066406 102.730469 181.066406 Z M 102.730469 183.789062 C 103.519531 183.789062 104.15625 183.125 104.15625 182.308594 C 104.15625 181.488281 103.519531 180.824219 102.730469 180.824219 C 101.945312 180.824219 101.308594 181.488281 101.308594 182.308594 C 101.308594 183.125 101.945312 183.789062 102.730469 183.789062 " fill-opacity="1" fill-rule="nonzero"/><path fill="#000000" d="M 102.550781 183.351562 C 102.300781 183.160156 102.132812 182.84375 102.132812 182.492188 C 102.132812 181.90625 102.59375 181.433594 103.148438 181.433594 C 103.210938 181.433594 103.273438 181.4375 103.332031 181.449219 C 103.164062 181.324219 102.957031 181.242188 102.730469 181.242188 C 102.167969 181.242188 101.714844 181.71875 101.714844 182.308594 C 101.714844 182.824219 102.078125 183.265625 102.550781 183.351562 " fill-opacity="1" fill-rule="nonzero"/><path fill="#000000" d="M 55.933594 157.273438 L 55.679688 157.222656 C 55.59375 157.203125 55.496094 157.167969 55.421875 157.113281 C 55.257812 156.996094 55.167969 156.785156 55.179688 156.601562 C 55.167969 155.921875 55.167969 155.246094 55.175781 154.570312 C 55.179688 153.894531 55.191406 153.210938 55.21875 152.535156 C 55.246094 151.859375 55.277344 151.179688 55.332031 150.503906 C 55.375 151.183594 55.394531 151.859375 55.40625 152.535156 C 55.421875 153.21875 55.421875 153.894531 55.417969 154.570312 C 55.40625 155.25 55.398438 155.925781 55.367188 156.601562 C 55.351562 156.753906 55.40625 156.894531 55.515625 156.992188 C 55.570312 157.035156 55.636719 157.066406 55.714844 157.089844 L 55.957031 157.15625 C 56.277344 157.253906 56.605469 157.339844 56.925781 157.449219 C 56.59375 157.394531 56.261719 157.332031 55.933594 157.273438 Z M 57.339844 149.554688 L 55.804688 149.316406 C 55.550781 149.28125 55.300781 149.351562 55.113281 149.515625 C 54.917969 149.679688 54.808594 149.917969 54.808594 150.167969 L 54.808594 156.773438 C 54.808594 157.199219 55.121094 157.5625 55.539062 157.625 L 57.101562 157.867188 C 57.328125 157.90625 57.550781 157.839844 57.722656 157.691406 C 57.890625 157.546875 57.996094 157.332031 57.996094 157.101562 L 57.996094 150.320312 C 57.996094 149.9375 57.714844 149.613281 57.339844 149.554688 " fill-opacity="1" fill-rule="nonzero"/><path fill="#000000" d="M 99.25 157.15625 L 99.492188 157.089844 C 99.570312 157.066406 99.632812 157.035156 99.695312 156.992188 C 99.800781 156.894531 99.851562 156.753906 99.839844 156.601562 C 99.808594 155.925781 99.796875 155.25 99.789062 154.570312 C 99.785156 153.894531 99.785156 153.21875 99.796875 152.535156 C 99.808594 151.859375 99.828125 151.183594 99.875 150.503906 C 99.929688 151.179688 99.960938 151.859375 99.984375 152.535156 C 100.015625 153.210938 100.027344 153.894531 100.03125 154.570312 C 100.039062 155.246094 100.039062 155.921875 100.019531 156.601562 C 100.03125 156.785156 99.941406 156.996094 99.785156 157.113281 C 99.710938 157.167969 99.609375 157.203125 99.523438 157.222656 L 99.273438 157.273438 C 98.941406 157.332031 98.613281 157.394531 98.273438 157.449219 C 98.601562 157.339844 98.921875 157.253906 99.25 157.15625 Z M 98.105469 157.867188 L 99.664062 157.625 C 100.085938 157.5625 100.398438 157.199219 100.398438 156.773438 L 100.398438 150.167969 C 100.398438 149.917969 100.289062 149.679688 100.09375 149.515625 C 99.90625 149.351562 99.652344 149.28125 99.402344 149.316406 L 97.867188 149.554688 C 97.492188 149.613281 97.214844 149.9375 97.214844 150.320312 L 97.214844 157.101562 C 97.214844 157.332031 97.308594 157.546875 97.480469 157.691406 C 97.65625 157.839844 97.878906 157.90625 98.105469 157.867188 " fill-opacity="1" fill-rule="nonzero"/><path fill="#000000" d="M 74.71875 141.226562 C 75.503906 141.226562 76.144531 141.796875 76.265625 142.554688 C 76.242188 141.71875 75.558594 141.042969 74.71875 141.042969 C 73.882812 141.042969 73.199219 141.71875 73.171875 142.554688 C 73.289062 141.796875 73.9375 141.226562 74.71875 141.226562 " fill-opacity="1" fill-rule="nonzero"/><path fill="#000000" d="M 73.804688 142.261719 C 74.109375 142.308594 74.417969 142.320312 74.71875 142.320312 C 75.023438 142.320312 75.332031 142.308594 75.636719 142.261719 C 75.332031 142.210938 75.023438 142.199219 74.71875 142.199219 C 74.417969 142.199219 74.109375 142.210938 73.804688 142.261719 " fill-opacity="1" fill-rule="nonzero"/><path fill="#000000" d="M 73.804688 142.707031 C 74.109375 142.753906 74.417969 142.761719 74.71875 142.765625 C 75.023438 142.761719 75.332031 142.753906 75.636719 142.707031 C 75.332031 142.65625 75.023438 142.644531 74.71875 142.644531 C 74.417969 142.644531 74.109375 142.65625 73.804688 142.707031 " fill-opacity="1" fill-rule="nonzero"/><path fill="#000000" d="M 73.804688 143.148438 C 74.109375 143.191406 74.417969 143.203125 74.71875 143.210938 C 75.023438 143.203125 75.332031 143.199219 75.636719 143.148438 C 75.332031 143.101562 75.023438 143.089844 74.71875 143.089844 C 74.417969 143.089844 74.109375 143.101562 73.804688 143.148438 " fill-opacity="1" fill-rule="nonzero"/><path fill="#000000" d="M 68.660156 142.800781 C 69.214844 142.800781 69.667969 143.210938 69.746094 143.738281 C 69.734375 143.148438 69.257812 142.675781 68.660156 142.675781 C 68.074219 142.675781 67.59375 143.148438 67.578125 143.738281 C 67.660156 143.210938 68.117188 142.800781 68.660156 142.800781 " fill-opacity="1" fill-rule="nonzero"/><path fill="#000000" d="M 68.019531 143.53125 C 68.238281 143.582031 68.449219 143.59375 68.660156 143.59375 C 68.878906 143.59375 69.09375 143.582031 69.3125 143.53125 C 69.09375 143.484375 68.878906 143.472656 68.660156 143.472656 C 68.449219 143.472656 68.238281 143.484375 68.019531 143.53125 " fill-opacity="1" fill-rule="nonzero"/><path fill="#000000" d="M 68.019531 143.84375 C 68.238281 143.890625 68.449219 143.90625 68.660156 143.90625 C 68.878906 143.90625 69.09375 143.890625 69.3125 143.84375 C 69.09375 143.792969 68.878906 143.78125 68.660156 143.78125 C 68.449219 143.78125 68.238281 143.792969 68.019531 143.84375 " fill-opacity="1" fill-rule="nonzero"/><path fill="#000000" d="M 68.019531 144.152344 C 68.238281 144.203125 68.449219 144.214844 68.660156 144.214844 C 68.878906 144.214844 69.09375 144.203125 69.3125 144.152344 C 69.09375 144.105469 68.878906 144.097656 68.660156 144.09375 C 68.449219 144.097656 68.238281 144.105469 68.019531 144.152344 " fill-opacity="1" fill-rule="nonzero"/><path fill="#000000" d="M 86.589844 142.800781 C 87.132812 142.800781 87.589844 143.210938 87.667969 143.738281 C 87.65625 143.148438 87.175781 142.675781 86.589844 142.675781 C 85.992188 142.675781 85.515625 143.148438 85.503906 143.738281 C 85.582031 143.210938 86.035156 142.800781 86.589844 142.800781 " fill-opacity="1" fill-rule="nonzero"/><path fill="#000000" d="M 85.9375 143.53125 C 86.15625 143.582031 86.371094 143.59375 86.589844 143.59375 C 86.800781 143.59375 87.011719 143.582031 87.230469 143.53125 C 87.011719 143.484375 86.800781 143.472656 86.589844 143.472656 C 86.371094 143.472656 86.15625 143.484375 85.9375 143.53125 " fill-opacity="1" fill-rule="nonzero"/><path fill="#000000" d="M 85.9375 143.84375 C 86.15625 143.890625 86.371094 143.90625 86.589844 143.90625 C 86.800781 143.90625 87.011719 143.890625 87.230469 143.84375 C 87.011719 143.792969 86.800781 143.78125 86.589844 143.78125 C 86.371094 143.78125 86.15625 143.792969 85.9375 143.84375 " fill-opacity="1" fill-rule="nonzero"/><path fill="#000000" d="M 85.9375 144.152344 C 86.15625 144.203125 86.371094 144.214844 86.589844 144.214844 C 86.800781 144.214844 87.011719 144.203125 87.230469 144.152344 C 87.011719 144.105469 86.800781 144.097656 86.589844 144.09375 C 86.371094 144.097656 86.15625 144.105469 85.9375 144.152344 " fill-opacity="1" fill-rule="nonzero"/><path fill="#000000" d="M 80.53125 141.226562 C 81.3125 141.226562 81.960938 141.796875 82.078125 142.554688 C 82.050781 141.71875 81.371094 141.042969 80.53125 141.042969 C 79.6875 141.042969 79.007812 141.71875 78.984375 142.554688 C 79.097656 141.796875 79.746094 141.226562 80.53125 141.226562 " fill-opacity="1" fill-rule="nonzero"/><path fill="#000000" d="M 79.613281 142.261719 C 79.917969 142.308594 80.226562 142.320312 80.53125 142.320312 C 80.832031 142.320312 81.140625 142.308594 81.445312 142.261719 C 81.140625 142.210938 80.832031 142.199219 80.53125 142.199219 C 80.226562 142.199219 79.917969 142.210938 79.613281 142.261719 " fill-opacity="1" fill-rule="nonzero"/><path fill="#000000" d="M 79.613281 142.707031 C 79.917969 142.753906 80.226562 142.761719 80.53125 142.765625 C 80.832031 142.761719 81.140625 142.753906 81.445312 142.707031 C 81.140625 142.65625 80.832031 142.644531 80.53125 142.644531 C 80.226562 142.644531 79.917969 142.65625 79.613281 142.707031 " fill-opacity="1" fill-rule="nonzero"/><path fill="#000000" d="M 79.613281 143.148438 C 79.917969 143.191406 80.226562 143.203125 80.53125 143.210938 C 80.832031 143.203125 81.140625 143.199219 81.445312 143.148438 C 81.140625 143.101562 80.832031 143.089844 80.53125 143.089844 C 80.226562 143.089844 79.917969 143.101562 79.613281 143.148438 " fill-opacity="1" fill-rule="nonzero"/><g clip-path="url(#id2)"><path fill="#000000" d="M 0 203.101562 C 12.933594 202.367188 25.878906 201.976562 38.8125 201.714844 C 45.285156 201.550781 51.746094 201.515625 58.21875 201.417969 L 77.625 201.320312 L 97.03125 201.410156 C 103.503906 201.507812 109.964844 201.539062 116.4375 201.707031 C 129.371094 201.96875 142.316406 202.359375 155.25 203.101562 C 142.316406 203.84375 129.371094 204.234375 116.4375 204.496094 C 109.964844 204.660156 103.503906 204.699219 97.03125 204.796875 L 77.625 204.886719 L 58.21875 204.789062 C 51.746094 204.691406 45.285156 204.65625 38.8125 204.492188 C 25.878906 204.230469 12.933594 203.839844 0 203.101562 " fill-opacity="1" fill-rule="nonzero"/></g><path fill="#000000" d="M 137.300781 188.730469 L 112.851562 188.730469 L 112.851562 187.617188 L 137.300781 187.617188 L 137.300781 188.730469 " fill-opacity="1" fill-rule="nonzero"/><path fill="#000000" d="M 137.300781 179.117188 L 112.851562 179.117188 L 112.851562 178.011719 L 137.300781 178.011719 L 137.300781 179.117188 " fill-opacity="1" fill-rule="nonzero"/><path fill="#000000" d="M 41.851562 188.105469 L 17.40625 188.105469 L 17.40625 186.988281 L 41.851562 186.988281 L 41.851562 188.105469 " fill-opacity="1" fill-rule="nonzero"/><path fill="#000000" d="M 41.851562 178.492188 L 17.40625 178.492188 L 17.40625 177.382812 L 41.851562 177.382812 L 41.851562 178.492188 " fill-opacity="1" fill-rule="nonzero"/><g fill="#000000" fill-opacity="1"><g transform="translate(216.643818, 175.589696)"><g><path d="M 1.660156 -28.867188 C 1.300781 -28.867188 1.082031 -28.648438 1.082031 -28.289062 L 1.082031 -24.679688 C 1.082031 -24.320312 1.300781 -24.101562 1.660156 -24.101562 L 5.84375 -24.101562 L 5.84375 -0.578125 C 5.84375 -0.179688 6.0625 0 6.421875 0 L 10.175781 0 C 10.570312 0 10.753906 -0.179688 10.753906 -0.578125 L 10.753906 -24.101562 L 14.9375 -24.101562 C 15.335938 -24.101562 15.515625 -24.320312 15.515625 -24.679688 L 15.515625 -28.289062 C 15.515625 -28.648438 15.335938 -28.867188 14.9375 -28.867188 Z M 1.660156 -28.867188 "/></g></g></g><g fill="#000000" fill-opacity="1"><g transform="translate(239.123769, 175.589696)"><g><path d="M 16.632812 -23.671875 C 16.632812 -27.0625 14.828125 -28.867188 11.4375 -28.867188 L 2.382812 -28.867188 C 2.019531 -28.867188 1.804688 -28.648438 1.804688 -28.289062 L 1.804688 -0.578125 C 1.804688 -0.214844 2.019531 0 2.382812 0 L 6.132812 0 C 6.496094 0 6.710938 -0.214844 6.710938 -0.578125 L 6.710938 -9.671875 L 9.199219 -9.671875 L 11.617188 -0.503906 C 11.691406 -0.179688 11.871094 0 12.230469 0 L 15.984375 0 C 16.382812 0 16.597656 -0.214844 16.488281 -0.648438 L 14 -10.101562 C 15.730469 -10.859375 16.632812 -12.449219 16.632812 -14.867188 Z M 6.710938 -14.433594 L 6.710938 -24.101562 L 10.285156 -24.101562 C 11.222656 -24.101562 11.726562 -23.597656 11.726562 -22.660156 L 11.726562 -15.875 C 11.726562 -14.9375 11.222656 -14.433594 10.285156 -14.433594 Z M 6.710938 -14.433594 "/></g></g></g><g fill="#000000" fill-opacity="1"><g transform="translate(263.443899, 175.589696)"><g><path d="M 12.195312 -28.867188 C 11.800781 -28.867188 11.472656 -28.542969 11.472656 -28.144531 L 11.472656 -6.207031 C 11.472656 -5.230469 10.96875 -4.761719 10.03125 -4.761719 L 8.15625 -4.761719 C 7.214844 -4.761719 6.710938 -5.230469 6.710938 -6.207031 L 6.710938 -28.144531 C 6.710938 -28.542969 6.386719 -28.867188 5.988281 -28.867188 L 2.527344 -28.867188 C 2.128906 -28.867188 1.804688 -28.542969 1.804688 -28.144531 L 1.804688 -5.195312 C 1.804688 -1.804688 3.609375 0 7 0 L 11.042969 0 C 14.433594 0 16.238281 -1.804688 16.238281 -5.195312 L 16.238281 -28.144531 C 16.238281 -28.542969 15.914062 -28.867188 15.515625 -28.867188 Z M 12.195312 -28.867188 "/></g></g></g><g fill="#000000" fill-opacity="1"><g transform="translate(287.367119, 175.589696)"><g><path d="M 16.273438 -23.671875 C 16.273438 -27.0625 14.433594 -28.867188 11.078125 -28.867188 L 7.035156 -28.867188 C 3.644531 -28.867188 1.804688 -27.0625 1.804688 -23.671875 L 1.804688 -5.195312 C 1.804688 -1.804688 3.644531 0 7.035156 0 L 11.078125 0 C 14.433594 0 16.273438 -1.804688 16.273438 -5.195312 L 16.273438 -9.09375 C 16.273438 -9.453125 16.058594 -9.671875 15.695312 -9.671875 L 12.085938 -9.671875 C 11.691406 -9.671875 11.511719 -9.453125 11.511719 -9.09375 L 11.511719 -6.207031 C 11.511719 -5.230469 11.003906 -4.761719 10.066406 -4.761719 L 8.191406 -4.761719 C 7.253906 -4.761719 6.746094 -5.230469 6.746094 -6.207031 L 6.746094 -22.660156 C 6.746094 -23.597656 7.214844 -24.101562 8.191406 -24.101562 L 10.066406 -24.101562 C 11.003906 -24.101562 11.511719 -23.597656 11.511719 -22.660156 L 11.511719 -19.773438 C 11.511719 -19.414062 11.691406 -19.195312 12.085938 -19.195312 L 15.695312 -19.195312 C 16.058594 -19.195312 16.273438 -19.414062 16.273438 -19.773438 Z M 16.273438 -23.671875 "/></g></g></g><g fill="#000000" fill-opacity="1"><g transform="translate(311.326422, 175.589696)"><g><path d="M 17.246094 0 C 17.824219 0 18.042969 -0.359375 17.789062 -0.828125 L 11.257812 -15.40625 L 17.390625 -28 C 17.644531 -28.503906 17.429688 -28.867188 16.886719 -28.867188 L 13.097656 -28.867188 C 12.699219 -28.867188 12.449219 -28.6875 12.269531 -28.324219 L 6.710938 -16.957031 L 6.710938 -28.144531 C 6.710938 -28.613281 6.457031 -28.867188 5.988281 -28.867188 L 2.527344 -28.867188 C 2.058594 -28.867188 1.804688 -28.613281 1.804688 -28.144531 L 1.804688 -0.722656 C 1.804688 -0.253906 2.058594 0 2.527344 0 L 5.988281 0 C 6.457031 0 6.710938 -0.253906 6.710938 -0.722656 L 6.710938 -8.695312 L 8.046875 -11.257812 L 12.59375 -0.542969 C 12.738281 -0.179688 12.988281 0 13.421875 0 Z M 17.246094 0 "/></g></g></g><g fill="#6d2c92" fill-opacity="1"><g transform="translate(199.346944, 206.339694)"><g><path d="M 14.550781 -21.761719 C 14.175781 -21.761719 13.957031 -21.574219 13.863281 -21.234375 L 10.414062 -7.367188 L 6.964844 -21.234375 C 6.871094 -21.574219 6.652344 -21.761719 6.28125 -21.761719 L 2.175781 -21.761719 C 1.773438 -21.761719 1.554688 -21.542969 1.554688 -21.140625 L 1.554688 -0.621094 C 1.554688 -0.21875 1.773438 0 2.175781 0 L 5.035156 0 C 5.441406 0 5.65625 -0.21875 5.65625 -0.621094 L 5.65625 -12.839844 L 5.875 -12.839844 L 8.796875 -0.527344 C 8.890625 -0.1875 9.109375 0 9.480469 0 L 11.316406 0 C 11.6875 0 11.90625 -0.1875 12 -0.527344 L 14.921875 -12.839844 L 15.140625 -12.839844 L 15.140625 -0.621094 C 15.140625 -0.21875 15.355469 0 15.761719 0 L 18.652344 0 C 19.054688 0 19.273438 -0.21875 19.273438 -0.621094 L 19.273438 -21.140625 C 19.273438 -21.542969 19.054688 -21.761719 18.652344 -21.761719 Z M 14.550781 -21.761719 "/></g></g></g><g fill="#6d2c92" fill-opacity="1"><g transform="translate(225.236491, 206.339694)"><g><path d="M 16.226562 0 C 16.601562 0 16.757812 -0.1875 16.664062 -0.527344 L 11.503906 -21.324219 C 11.441406 -21.636719 11.253906 -21.761719 10.972656 -21.761719 L 6.652344 -21.761719 C 6.371094 -21.761719 6.1875 -21.636719 6.125 -21.324219 L 0.964844 -0.527344 C 0.871094 -0.1875 1.027344 0 1.367188 0 L 4.414062 0 C 4.695312 0 4.851562 -0.15625 4.910156 -0.433594 L 5.875 -4.351562 L 11.71875 -4.351562 L 12.714844 -0.433594 C 12.777344 -0.15625 12.933594 0 13.210938 0 Z M 10.757812 -7.957031 L 6.839844 -7.957031 L 8.796875 -16.414062 Z M 10.757812 -7.957031 "/></g></g></g><g fill="#882d84" fill-opacity="1"><g transform="translate(247.92116, 206.339694)"><g><path d="M 11.410156 -21.761719 C 11.066406 -21.761719 10.910156 -21.574219 10.910156 -21.265625 L 10.910156 -9.480469 L 5.066406 -21.355469 C 4.941406 -21.636719 4.789062 -21.761719 4.507812 -21.761719 L 2.050781 -21.761719 C 1.742188 -21.761719 1.554688 -21.574219 1.554688 -21.265625 L 1.554688 -0.496094 C 1.554688 -0.1875 1.742188 0 2.050781 0 L 4.972656 0 C 5.316406 0 5.472656 -0.1875 5.472656 -0.496094 L 5.472656 -12.28125 L 11.316406 -0.402344 C 11.441406 -0.125 11.59375 0 11.875 0 L 14.332031 0 C 14.640625 0 14.828125 -0.1875 14.828125 -0.496094 L 14.828125 -21.265625 C 14.828125 -21.574219 14.640625 -21.761719 14.332031 -21.761719 Z M 11.410156 -21.761719 "/></g></g></g><g fill="#882d84" fill-opacity="1"><g transform="translate(269.366553, 206.339694)"><g><path d="M 16.226562 0 C 16.601562 0 16.757812 -0.1875 16.664062 -0.527344 L 11.503906 -21.324219 C 11.441406 -21.636719 11.253906 -21.761719 10.972656 -21.761719 L 6.652344 -21.761719 C 6.371094 -21.761719 6.1875 -21.636719 6.125 -21.324219 L 0.964844 -0.527344 C 0.871094 -0.1875 1.027344 0 1.367188 0 L 4.414062 0 C 4.695312 0 4.851562 -0.15625 4.910156 -0.433594 L 5.875 -4.351562 L 11.71875 -4.351562 L 12.714844 -0.433594 C 12.777344 -0.15625 12.933594 0 13.210938 0 Z M 10.757812 -7.957031 L 6.839844 -7.957031 L 8.796875 -16.414062 Z M 10.757812 -7.957031 "/></g></g></g><g fill="#b52e6d" fill-opacity="1"><g transform="translate(292.05397, 206.339694)"><g><path d="M 1.554688 -4.476562 C 1.554688 -1.554688 3.109375 0 6.03125 0 L 9.511719 0 C 12.402344 0 13.988281 -1.554688 13.988281 -4.476562 L 13.988281 -11.566406 C 13.988281 -11.90625 13.804688 -12.0625 13.492188 -12.0625 L 8.457031 -12.0625 C 8.113281 -12.0625 7.957031 -11.90625 7.957031 -11.566406 L 7.957031 -8.457031 C 7.957031 -8.144531 8.113281 -7.957031 8.457031 -7.957031 L 10.074219 -7.957031 L 10.074219 -5.253906 C 10.074219 -4.414062 9.636719 -4.011719 8.828125 -4.011719 L 6.839844 -4.011719 C 6.03125 -4.011719 5.597656 -4.414062 5.597656 -5.253906 L 5.597656 -16.507812 C 5.597656 -17.316406 6 -17.75 6.839844 -17.75 L 8.828125 -17.75 C 9.636719 -17.75 10.074219 -17.316406 10.074219 -16.507812 L 10.074219 -14.984375 C 10.074219 -14.671875 10.226562 -14.488281 10.570312 -14.488281 L 13.492188 -14.488281 C 13.804688 -14.488281 13.988281 -14.671875 13.988281 -14.984375 L 13.988281 -17.285156 C 13.988281 -20.207031 12.402344 -21.761719 9.511719 -21.761719 L 6.03125 -21.761719 C 3.109375 -21.761719 1.554688 -20.207031 1.554688 -17.285156 Z M 1.554688 -4.476562 "/></g></g></g><g fill="#b52e6d" fill-opacity="1"><g transform="translate(312.660248, 206.339694)"><g><path d="M 13.957031 -21.265625 C 13.957031 -21.574219 13.832031 -21.761719 13.460938 -21.761719 L 2.019531 -21.761719 C 1.742188 -21.761719 1.554688 -21.574219 1.554688 -21.265625 L 1.554688 -0.496094 C 1.554688 -0.1875 1.742188 0 2.019531 0 L 13.460938 0 C 13.832031 0 13.957031 -0.1875 13.957031 -0.496094 L 13.957031 -3.605469 C 13.957031 -3.949219 13.832031 -4.105469 13.460938 -4.105469 L 5.78125 -4.105469 L 5.78125 -8.703125 L 11.625 -8.703125 C 11.9375 -8.703125 12.125 -8.890625 12.125 -9.234375 L 12.125 -12.3125 C 12.125 -12.652344 11.9375 -12.839844 11.625 -12.839844 L 5.78125 -12.839844 L 5.78125 -17.625 L 13.460938 -17.625 C 13.832031 -17.625 13.957031 -17.84375 13.957031 -18.15625 Z M 13.957031 -21.265625 "/></g></g></g><g fill="#c92f62" fill-opacity="1"><g transform="translate(333.233654, 206.339694)"><g><path d="M 13.988281 -17.285156 C 13.988281 -20.207031 12.433594 -21.761719 9.511719 -21.761719 L 2.050781 -21.761719 C 1.742188 -21.761719 1.554688 -21.574219 1.554688 -21.265625 L 1.554688 -0.496094 C 1.554688 -0.1875 1.742188 0 2.050781 0 L 5.097656 0 C 5.410156 0 5.597656 -0.1875 5.597656 -0.496094 L 5.597656 -6.558594 L 8.363281 -6.558594 L 9.855469 -0.433594 C 9.917969 -0.15625 10.074219 0 10.382812 0 L 13.429688 0 C 13.773438 0 13.957031 -0.1875 13.863281 -0.558594 L 12.25 -7.242188 C 13.398438 -7.957031 13.988281 -9.234375 13.988281 -11.035156 Z M 5.597656 -10.570312 L 5.597656 -17.75 L 8.703125 -17.75 C 9.511719 -17.75 9.949219 -17.316406 9.949219 -16.507812 L 9.949219 -11.8125 C 9.949219 -11.003906 9.511719 -10.570312 8.703125 -10.570312 Z M 5.597656 -10.570312 "/></g></g></g></svg>