<svg xmlns="http://www.w3.org/2000/svg" xmlns:xlink="http://www.w3.org/1999/xlink" width="500" zoomAndPan="magnify" viewBox="0 0 375 374.999991" height="500" preserveAspectRatio="xMidYMid meet" version="1.0"><defs><g/><clipPath id="id1"><path d="M 146 87.015625 L 229 87.015625 L 229 178 L 146 178 Z M 146 87.015625 " clip-rule="nonzero"/></clipPath><clipPath id="id2"><path d="M 75.847656 174 L 299.347656 174 L 299.347656 180 L 75.847656 180 Z M 75.847656 174 " clip-rule="nonzero"/></clipPath></defs><g clip-path="url(#id1)"><path fill="#000000" d="M 187.597656 168.34375 C 152.867188 168.34375 149.160156 165.804688 148.792969 165.414062 C 148.667969 165.019531 148.546875 164.621094 148.441406 164.21875 C 148.765625 164.410156 149.097656 164.578125 149.429688 164.726562 C 150.40625 165.132812 151.402344 165.371094 152.40625 165.527344 C 154.414062 165.839844 156.414062 165.839844 158.394531 165.738281 C 156.414062 165.613281 154.433594 165.371094 152.554688 164.847656 C 151.621094 164.578125 150.710938 164.234375 149.902344 163.773438 C 149.542969 163.574219 149.203125 163.335938 148.90625 163.085938 C 149.140625 163.1875 149.386719 163.292969 149.628906 163.390625 C 150.695312 163.78125 151.777344 164.019531 152.867188 164.175781 C 155.050781 164.472656 157.226562 164.472656 159.390625 164.359375 C 157.242188 164.234375 155.105469 164 153.050781 163.484375 C 152.992188 163.476562 152.921875 163.460938 152.859375 163.441406 C 151.910156 163.1875 150.984375 162.867188 150.136719 162.449219 C 150.03125 162.394531 149.925781 162.34375 149.820312 162.28125 C 149.507812 162.117188 149.210938 161.925781 148.949219 161.714844 C 149.238281 161.835938 149.523438 161.949219 149.820312 162.046875 C 150.972656 162.4375 152.152344 162.664062 153.332031 162.8125 C 155.6875 163.101562 158.046875 163.101562 160.386719 162.988281 C 158.082031 162.867188 155.777344 162.628906 153.550781 162.132812 C 153.480469 162.125 153.410156 162.105469 153.339844 162.089844 C 152.320312 161.84375 151.316406 161.539062 150.382812 161.128906 C 150.257812 161.078125 150.144531 161.027344 150.03125 160.964844 C 149.664062 160.789062 149.324219 160.597656 149 160.371094 C 148.984375 160.363281 148.964844 160.34375 148.949219 160.335938 C 149.296875 160.476562 149.65625 160.605469 150.015625 160.710938 C 151.261719 161.09375 152.527344 161.3125 153.792969 161.453125 C 156.328125 161.730469 158.859375 161.722656 161.371094 161.609375 C 158.910156 161.496094 156.441406 161.269531 154.046875 160.78125 C 153.976562 160.765625 153.898438 160.753906 153.820312 160.738281 C 152.71875 160.503906 151.636719 160.207031 150.625 159.804688 C 150.496094 159.75 150.371094 159.699219 150.242188 159.648438 C 149.847656 159.472656 149.464844 159.28125 149.105469 159.070312 C 149.046875 159.035156 148.992188 158.992188 148.933594 158.957031 C 149.359375 159.125 149.777344 159.261719 150.207031 159.375 C 151.550781 159.75 152.902344 159.953125 154.257812 160.09375 C 156.964844 160.363281 159.679688 160.355469 162.367188 160.242188 C 159.738281 160.128906 157.113281 159.898438 154.554688 159.429688 C 154.464844 159.410156 154.386719 159.394531 154.300781 159.386719 C 153.132812 159.160156 151.96875 158.871094 150.859375 158.476562 C 150.730469 158.425781 150.589844 158.382812 150.460938 158.328125 C 150.023438 158.164062 149.605469 157.980469 149.210938 157.761719 C 149.097656 157.710938 148.992188 157.640625 148.886719 157.570312 C 149.386719 157.761719 149.890625 157.910156 150.40625 158.042969 C 151.839844 158.398438 153.28125 158.601562 154.71875 158.730469 C 157.609375 158.992188 160.492188 158.984375 163.363281 158.871094 C 160.570312 158.75 157.785156 158.53125 155.050781 158.078125 C 154.964844 158.058594 154.878906 158.050781 154.789062 158.03125 C 153.53125 157.804688 152.292969 157.535156 151.105469 157.160156 C 150.957031 157.109375 150.808594 157.054688 150.660156 157.003906 C 150.207031 156.847656 149.742188 156.664062 149.316406 156.460938 C 149.132812 156.375 148.957031 156.28125 148.785156 156.183594 C 148.773438 156.175781 148.765625 156.175781 148.765625 156.175781 C 149.367188 156.394531 149.980469 156.566406 150.597656 156.707031 C 152.128906 157.054688 153.65625 157.246094 155.183594 157.378906 C 158.246094 157.625 161.304688 157.605469 164.351562 157.492188 C 161.3125 157.371094 158.265625 157.152344 155.269531 156.679688 C 153.777344 156.4375 152.292969 156.132812 150.878906 155.695312 C 150.171875 155.46875 149.472656 155.207031 148.835938 154.882812 C 148.519531 154.726562 148.214844 154.542969 147.953125 154.34375 C 147.824219 154.246094 147.699219 154.152344 147.605469 154.039062 C 147.550781 153.992188 147.507812 153.933594 147.472656 153.890625 C 147.457031 153.871094 147.449219 153.855469 147.4375 153.835938 L 147.324219 153.878906 C 147.34375 153.347656 147.359375 152.921875 147.386719 152.625 L 147.972656 152.625 C 149.628906 154.597656 163.667969 155.675781 187.597656 155.675781 C 211.527344 155.675781 225.566406 154.597656 227.226562 152.625 L 227.8125 152.625 C 227.835938 152.921875 227.855469 153.347656 227.871094 153.878906 L 227.757812 153.835938 C 227.75 153.855469 227.734375 153.871094 227.722656 153.890625 C 227.6875 153.933594 227.644531 153.992188 227.59375 154.039062 C 227.496094 154.152344 227.367188 154.246094 227.242188 154.34375 C 226.972656 154.542969 226.675781 154.726562 226.351562 154.882812 C 225.726562 155.207031 225.035156 155.46875 224.320312 155.695312 C 222.90625 156.132812 221.421875 156.4375 219.929688 156.679688 C 216.933594 157.152344 213.894531 157.371094 210.839844 157.492188 C 213.894531 157.605469 216.949219 157.625 220.015625 157.378906 C 221.542969 157.246094 223.070312 157.054688 224.597656 156.707031 C 225.21875 156.566406 225.828125 156.394531 226.441406 156.175781 C 226.433594 156.175781 226.421875 156.175781 226.414062 156.183594 C 226.238281 156.28125 226.066406 156.375 225.882812 156.460938 C 225.453125 156.664062 224.992188 156.847656 224.527344 157.003906 C 224.390625 157.054688 224.242188 157.109375 224.09375 157.160156 C 222.90625 157.535156 221.664062 157.804688 220.40625 158.03125 C 220.320312 158.050781 220.234375 158.058594 220.144531 158.078125 C 217.414062 158.53125 214.628906 158.75 211.835938 158.871094 C 214.707031 158.984375 217.589844 158.992188 220.476562 158.730469 C 221.917969 158.601562 223.359375 158.398438 224.800781 158.042969 C 225.304688 157.910156 225.8125 157.761719 226.308594 157.570312 C 226.203125 157.640625 226.101562 157.710938 225.988281 157.761719 C 225.59375 157.980469 225.175781 158.164062 224.738281 158.328125 C 224.605469 158.382812 224.46875 158.425781 224.335938 158.476562 C 223.238281 158.871094 222.066406 159.160156 220.886719 159.386719 C 220.808594 159.394531 220.730469 159.410156 220.644531 159.429688 C 218.085938 159.898438 215.457031 160.128906 212.828125 160.242188 C 215.519531 160.355469 218.226562 160.363281 220.941406 160.09375 C 222.292969 159.953125 223.648438 159.75 224.984375 159.375 C 225.410156 159.261719 225.839844 159.125 226.265625 158.957031 C 226.203125 158.992188 226.152344 159.035156 226.089844 159.070312 C 225.734375 159.28125 225.347656 159.472656 224.957031 159.648438 C 224.824219 159.699219 224.703125 159.75 224.574219 159.804688 C 223.558594 160.207031 222.476562 160.503906 221.378906 160.738281 C 221.296875 160.753906 221.21875 160.765625 221.148438 160.78125 C 218.757812 161.269531 216.289062 161.496094 213.824219 161.609375 C 216.339844 161.722656 218.863281 161.730469 221.402344 161.453125 C 222.667969 161.3125 223.933594 161.09375 225.183594 160.710938 C 225.542969 160.605469 225.898438 160.476562 226.25 160.335938 C 226.230469 160.34375 226.214844 160.363281 226.195312 160.371094 C 225.882812 160.597656 225.523438 160.789062 225.167969 160.964844 C 225.050781 161.027344 224.929688 161.078125 224.816406 161.128906 C 223.882812 161.539062 222.878906 161.84375 221.855469 162.089844 C 221.789062 162.105469 221.71875 162.125 221.640625 162.132812 C 219.421875 162.628906 217.125 162.867188 214.820312 162.988281 C 217.152344 163.101562 219.507812 163.101562 221.867188 162.8125 C 223.042969 162.664062 224.214844 162.4375 225.375 162.046875 C 225.671875 161.949219 225.960938 161.835938 226.25 161.714844 C 225.976562 161.925781 225.691406 162.117188 225.375 162.28125 C 225.269531 162.34375 225.167969 162.394531 225.0625 162.449219 C 224.207031 162.867188 223.289062 163.1875 222.335938 163.441406 C 222.277344 163.460938 222.207031 163.476562 222.144531 163.484375 C 220.09375 164 217.945312 164.234375 215.808594 164.359375 C 217.972656 164.472656 220.144531 164.472656 222.328125 164.175781 C 223.421875 164.019531 224.503906 163.78125 225.566406 163.390625 C 225.8125 163.292969 226.054688 163.1875 226.292969 163.085938 C 225.996094 163.335938 225.664062 163.574219 225.296875 163.773438 C 224.484375 164.234375 223.578125 164.578125 222.644531 164.847656 C 220.765625 165.371094 218.785156 165.613281 216.800781 165.738281 C 218.785156 165.839844 220.785156 165.839844 222.792969 165.527344 C 223.785156 165.371094 224.789062 165.132812 225.769531 164.726562 C 226.101562 164.578125 226.433594 164.410156 226.753906 164.21875 C 226.640625 164.621094 226.527344 165.019531 226.40625 165.414062 C 226.039062 165.804688 222.328125 168.34375 187.597656 168.34375 Z M 157.101562 145.007812 C 158.316406 145.078125 159.476562 145.515625 160.445312 146.246094 C 161.644531 147.164062 162.316406 148.210938 162.464844 149.371094 C 162.515625 149.761719 162.394531 150.171875 162.132812 150.476562 C 161.863281 150.785156 161.484375 150.957031 161.074219 150.964844 C 158.238281 151.019531 151.578125 151 148.828125 149.839844 L 148.828125 143.855469 C 150.1875 144.144531 153.65625 144.796875 157.101562 145.007812 Z M 148.792969 152.285156 L 148.304688 152.101562 L 148.816406 152.101562 C 148.828125 152.152344 148.816406 152.214844 148.792969 152.285156 Z M 154.386719 133.859375 C 157.460938 132.121094 160.726562 131.722656 162.402344 131.640625 L 164.296875 152.738281 C 164.351562 153.277344 164.558594 153.765625 164.882812 154.167969 C 151.386719 153.503906 149.175781 152.308594 148.828125 152.003906 L 148.828125 150.601562 C 151.269531 151.488281 155.882812 151.683594 159.328125 151.683594 C 159.96875 151.683594 160.5625 151.683594 161.09375 151.671875 C 161.695312 151.65625 162.261719 151.394531 162.664062 150.941406 C 163.058594 150.476562 163.242188 149.875 163.164062 149.28125 C 162.996094 147.929688 162.226562 146.71875 160.875 145.695312 C 159.792969 144.859375 158.5 144.378906 157.148438 144.300781 C 153.621094 144.09375 150.074219 143.402344 148.835938 143.140625 C 148.921875 139.292969 151.027344 135.75 154.386719 133.859375 Z M 162.925781 115.878906 C 162.488281 115.230469 161.816406 114.789062 161.058594 114.621094 L 155.757812 113.460938 C 154.710938 113.242188 153.960938 112.308594 153.960938 111.246094 L 153.960938 101.011719 C 153.960938 100.566406 154.152344 100.140625 154.476562 99.84375 C 154.796875 99.539062 155.242188 99.378906 155.679688 99.414062 L 158.140625 99.597656 L 158.175781 99.597656 C 159.015625 99.597656 159.828125 99.617188 160.605469 99.632812 C 161.863281 99.667969 163.058594 99.695312 164.316406 99.652344 L 164.351562 100.472656 L 164.351562 115.390625 C 164.054688 115.835938 163.789062 116.3125 163.5625 116.800781 Z M 165.046875 97.433594 C 165.398438 97.070312 165.878906 96.824219 166.367188 96.761719 C 166.882812 96.726562 167.449219 96.71875 167.992188 96.691406 C 170.179688 96.597656 172.355469 96.5 174.546875 96.378906 C 176.730469 96.265625 178.902344 96.117188 181.09375 95.996094 L 184.359375 95.777344 C 185.460938 95.699219 186.523438 95.613281 187.597656 95.621094 C 188.140625 95.621094 188.671875 95.636719 189.207031 95.664062 L 190.839844 95.769531 L 194.101562 95.996094 C 196.292969 96.117188 198.46875 96.265625 200.660156 96.378906 C 202.832031 96.492188 205.015625 96.597656 207.207031 96.691406 C 207.738281 96.71875 208.316406 96.726562 208.824219 96.761719 C 209.320312 96.824219 209.800781 97.070312 210.148438 97.433594 C 210.4375 97.738281 210.628906 98.125 210.71875 98.535156 L 187.597656 97.128906 L 164.480469 98.535156 C 164.566406 98.125 164.761719 97.738281 165.046875 97.433594 Z M 172.609375 92.234375 C 172.722656 93.289062 173.613281 94.101562 174.695312 94.101562 C 175.785156 94.101562 176.675781 93.289062 176.789062 92.234375 C 176.753906 93.359375 175.832031 94.25 174.695312 94.25 C 173.570312 94.25 172.644531 93.359375 172.609375 92.234375 Z M 174.695312 90.273438 C 175.726562 90.273438 176.554688 91.101562 176.554688 92.121094 C 176.554688 93.152344 175.726562 93.980469 174.695312 93.980469 C 173.671875 93.980469 172.84375 93.152344 172.84375 92.121094 C 172.84375 91.101562 173.671875 90.273438 174.695312 90.273438 Z M 180.429688 90.605469 C 180.605469 92.09375 181.871094 93.265625 183.417969 93.265625 C 184.960938 93.265625 186.226562 92.09375 186.394531 90.605469 C 186.332031 92.199219 185.023438 93.472656 183.417969 93.472656 C 181.800781 93.472656 180.492188 92.199219 180.429688 90.605469 Z M 183.417969 87.8125 C 184.875 87.8125 186.054688 88.988281 186.054688 90.445312 C 186.054688 91.902344 184.875 93.089844 183.417969 93.089844 C 181.960938 93.089844 180.773438 91.902344 180.773438 90.445312 C 180.773438 88.988281 181.960938 87.8125 183.417969 87.8125 Z M 188.796875 90.605469 C 188.96875 92.09375 190.234375 93.265625 191.78125 93.265625 C 193.324219 93.265625 194.59375 92.09375 194.765625 90.605469 C 194.695312 92.199219 193.394531 93.472656 191.78125 93.472656 C 190.164062 93.472656 188.863281 92.199219 188.796875 90.605469 Z M 191.78125 87.8125 C 193.238281 87.8125 194.417969 88.988281 194.417969 90.445312 C 194.417969 91.902344 193.238281 93.089844 191.78125 93.089844 C 190.324219 93.089844 189.136719 91.902344 189.136719 90.445312 C 189.136719 88.988281 190.324219 87.8125 191.78125 87.8125 Z M 198.40625 92.234375 C 198.519531 93.289062 199.410156 94.101562 200.503906 94.101562 C 201.585938 94.101562 202.476562 93.289062 202.589844 92.234375 C 202.554688 93.359375 201.628906 94.25 200.503906 94.25 C 199.367188 94.25 198.441406 93.359375 198.40625 92.234375 Z M 200.503906 90.273438 C 201.523438 90.273438 202.351562 91.101562 202.351562 92.121094 C 202.351562 93.152344 201.523438 93.980469 200.503906 93.980469 C 199.472656 93.980469 198.644531 93.152344 198.644531 92.121094 C 198.644531 91.101562 199.472656 90.273438 200.503906 90.273438 Z M 214.53125 99.632812 C 215.308594 99.617188 216.121094 99.597656 216.960938 99.597656 L 219.457031 99.414062 C 219.894531 99.378906 220.339844 99.539062 220.660156 99.832031 C 220.984375 100.140625 221.167969 100.566406 221.167969 101.011719 L 221.167969 111.246094 C 221.167969 112.308594 220.417969 113.242188 219.378906 113.460938 L 214.078125 114.621094 C 213.320312 114.789062 212.648438 115.230469 212.203125 115.878906 L 211.609375 116.75 C 211.378906 116.277344 211.128906 115.824219 210.839844 115.390625 L 210.839844 100.480469 L 210.882812 99.652344 C 212.113281 99.695312 213.292969 99.667969 214.53125 99.632812 Z M 165.230469 125.335938 C 165.46875 125.074219 165.800781 124.933594 166.140625 124.933594 L 167.195312 124.933594 L 169.542969 149.40625 L 168.539062 124.933594 L 172.128906 124.933594 L 174.058594 149.40625 L 173.472656 124.933594 L 177.0625 124.933594 L 178.570312 149.40625 L 178.40625 124.933594 L 181.992188 124.933594 L 183.085938 149.40625 L 183.339844 124.933594 L 186.925781 124.933594 L 187.597656 149.40625 L 188.269531 124.933594 L 191.859375 124.933594 L 192.113281 149.40625 L 193.203125 124.933594 L 196.792969 124.933594 L 196.625 149.40625 L 198.136719 124.933594 L 201.726562 124.933594 L 201.132812 149.40625 L 203.070312 124.933594 L 206.65625 124.933594 L 205.644531 149.40625 L 208.003906 124.933594 L 209.050781 124.933594 C 209.398438 124.933594 209.730469 125.074219 209.964844 125.335938 C 210.195312 125.585938 210.308594 125.929688 210.28125 126.269531 L 208.070312 150.828125 C 208.003906 151.585938 207.363281 152.160156 206.605469 152.160156 L 168.59375 152.160156 C 167.824219 152.160156 167.195312 151.585938 167.125 150.828125 L 164.917969 126.269531 C 164.882812 125.929688 165.003906 125.585938 165.230469 125.335938 Z M 168.140625 121.46875 C 167.957031 121.390625 167.773438 121.304688 167.597656 121.207031 L 172.851562 120.988281 L 166.871094 120.738281 C 166.804688 120.695312 166.734375 120.632812 166.671875 120.582031 L 173.308594 120.320312 L 166.070312 120.039062 C 166.0625 120.03125 166.050781 120.023438 166.042969 120.011719 C 166.027344 119.996094 166.007812 119.96875 165.992188 119.941406 L 173.761719 119.65625 L 165.511719 119.339844 C 165.503906 119.332031 165.484375 119.316406 165.476562 119.296875 L 174.222656 118.992188 L 165.082031 118.660156 C 165.082031 118.652344 165.082031 118.652344 165.082031 118.652344 L 174.679688 118.320312 L 164.917969 117.988281 L 175.132812 117.65625 L 164.933594 117.324219 L 175.59375 116.984375 L 164.960938 116.652344 L 176.046875 116.324219 L 164.988281 115.992188 L 176.503906 115.660156 L 165.867188 115.34375 L 209.328125 115.34375 L 198.695312 115.660156 L 210.210938 115.992188 L 199.148438 116.324219 L 210.238281 116.652344 L 199.601562 116.984375 L 210.253906 117.324219 L 200.058594 117.65625 L 210.28125 117.988281 L 200.519531 118.320312 L 210.113281 118.652344 C 210.113281 118.652344 210.105469 118.652344 210.105469 118.660156 L 200.972656 118.992188 L 209.722656 119.296875 C 209.714844 119.316406 209.703125 119.332031 209.6875 119.339844 L 201.429688 119.65625 L 209.207031 119.941406 C 209.1875 119.96875 209.171875 119.996094 209.15625 120.011719 C 209.144531 120.023438 209.136719 120.03125 209.128906 120.039062 L 201.890625 120.320312 L 208.527344 120.582031 C 208.464844 120.632812 208.394531 120.695312 208.324219 120.738281 L 202.34375 120.988281 L 207.601562 121.207031 C 207.425781 121.304688 207.242188 121.390625 207.058594 121.46875 L 202.796875 121.652344 L 206.039062 121.792969 C 205.582031 121.90625 205.121094 121.957031 204.640625 121.957031 C 200.441406 121.957031 194.015625 121.957031 187.597656 121.957031 C 181.171875 121.957031 174.757812 121.957031 170.558594 121.957031 C 170.078125 121.957031 169.613281 121.90625 169.152344 121.792969 L 172.398438 121.652344 Z M 188.304688 102.320312 L 202.136719 102.320312 C 205.707031 102.320312 208.59375 105.214844 208.59375 108.785156 L 208.59375 114.378906 L 188.304688 114.378906 Z M 166.601562 108.785156 C 166.601562 105.214844 169.492188 102.320312 173.0625 102.320312 L 186.890625 102.320312 L 186.890625 114.378906 L 166.601562 114.378906 Z M 186.804688 101.0625 C 185.058594 101.210938 183.304688 101.289062 181.546875 101.335938 C 179.800781 101.394531 178.046875 101.414062 176.300781 101.414062 L 173.671875 101.394531 L 172.355469 101.378906 C 171.945312 101.371094 171.527344 101.40625 171.117188 101.484375 C 169.492188 101.824219 167.886719 102.773438 167.082031 104.351562 C 167.328125 103.5 167.902344 102.757812 168.582031 102.179688 C 169.28125 101.605469 170.101562 101.1875 170.992188 100.949219 C 171.4375 100.835938 171.894531 100.765625 172.355469 100.757812 L 173.671875 100.734375 L 176.300781 100.714844 C 178.046875 100.722656 179.800781 100.734375 181.546875 100.792969 C 183.304688 100.847656 185.058594 100.914062 186.804688 101.0625 Z M 220.808594 133.859375 C 224.164062 135.75 226.273438 139.292969 226.363281 143.132812 C 225.15625 143.386719 221.578125 144.09375 218.023438 144.300781 C 216.664062 144.378906 215.371094 144.859375 214.289062 145.695312 C 212.945312 146.71875 212.175781 147.929688 212 149.28125 C 211.921875 149.875 212.113281 150.476562 212.507812 150.941406 C 212.898438 151.394531 213.476562 151.65625 214.078125 151.671875 C 214.609375 151.683594 215.203125 151.683594 215.832031 151.683594 C 219.300781 151.683594 223.933594 151.488281 226.371094 150.582031 L 226.371094 152.003906 C 226.023438 152.308594 223.8125 153.503906 210.316406 154.167969 C 210.636719 153.765625 210.847656 153.277344 210.902344 152.738281 L 212.796875 131.640625 C 214.460938 131.722656 217.726562 132.121094 220.808594 133.859375 Z M 226.371094 149.832031 C 223.648438 151 216.933594 151.019531 214.085938 150.964844 C 213.6875 150.957031 213.300781 150.785156 213.039062 150.476562 C 212.769531 150.171875 212.648438 149.761719 212.699219 149.371094 C 212.847656 148.210938 213.519531 147.164062 214.714844 146.246094 C 215.695312 145.515625 216.847656 145.078125 218.066406 145.007812 C 221.535156 144.796875 225.027344 144.125 226.371094 143.855469 Z M 226.40625 152.285156 C 226.371094 152.214844 226.371094 152.152344 226.371094 152.101562 L 226.894531 152.101562 Z M 228.832031 152.046875 L 228.789062 151.570312 L 227.425781 151.570312 L 227.425781 143.386719 C 227.425781 139.066406 225.085938 135.0625 221.324219 132.941406 C 218.066406 131.101562 214.679688 130.675781 212.890625 130.585938 L 213.257812 126.539062 C 213.273438 126.339844 213.273438 126.136719 213.257812 125.945312 C 213.300781 124.585938 213.273438 121.113281 212.085938 117.902344 L 213.074219 116.472656 C 213.371094 116.050781 213.800781 115.753906 214.304688 115.652344 L 219.605469 114.5 C 221.125 114.167969 222.222656 112.796875 222.222656 111.246094 L 222.222656 101.011719 C 222.222656 100.269531 221.917969 99.5625 221.378906 99.066406 C 220.835938 98.558594 220.109375 98.308594 219.378906 98.359375 L 216.941406 98.542969 C 216.09375 98.542969 215.285156 98.558594 214.496094 98.585938 C 213.285156 98.613281 212.113281 98.640625 210.910156 98.59375 C 210.867188 98.105469 210.683594 97.636719 210.375 97.242188 C 210.011719 96.789062 209.476562 96.476562 208.890625 96.363281 C 208.316406 96.28125 207.792969 96.238281 207.242188 96.179688 C 205.136719 95.96875 203.027344 95.757812 200.921875 95.578125 L 201.550781 95.578125 L 201.304688 94.242188 C 202.160156 93.917969 202.765625 93.097656 202.765625 92.121094 C 202.765625 90.875 201.75 89.863281 200.503906 89.863281 C 199.246094 89.863281 198.234375 90.875 198.234375 92.121094 C 198.234375 93.097656 198.835938 93.917969 199.691406 94.242188 L 199.472656 95.445312 C 197.707031 95.289062 195.945312 95.148438 194.183594 95 L 193.195312 94.921875 L 192.933594 93.457031 C 194.148438 92.996094 195.011719 91.824219 195.011719 90.445312 C 195.011719 88.667969 193.5625 87.21875 191.78125 87.21875 C 190 87.21875 188.550781 88.667969 188.550781 90.445312 C 188.550781 91.824219 189.414062 92.996094 190.628906 93.457031 L 190.402344 94.703125 L 189.265625 94.625 C 188.714844 94.589844 188.148438 94.574219 187.597656 94.574219 C 186.65625 94.566406 185.714844 94.632812 184.796875 94.703125 L 184.570312 93.457031 C 185.78125 92.996094 186.648438 91.824219 186.648438 90.445312 C 186.648438 88.667969 185.199219 87.21875 183.417969 87.21875 C 181.636719 87.21875 180.1875 88.667969 180.1875 90.445312 C 180.1875 91.824219 181.050781 92.996094 182.265625 93.457031 L 181.992188 94.921875 L 181.015625 94.992188 C 179.253906 95.148438 177.488281 95.289062 175.726562 95.445312 L 175.507812 94.242188 C 176.363281 93.917969 176.964844 93.097656 176.964844 92.121094 C 176.964844 90.875 175.953125 89.863281 174.695312 89.863281 C 173.445312 89.863281 172.433594 90.875 172.433594 92.121094 C 172.433594 93.097656 173.035156 93.917969 173.890625 94.242188 L 173.648438 95.578125 L 174.257812 95.578125 C 172.15625 95.757812 170.058594 95.96875 167.957031 96.179688 C 167.40625 96.238281 166.882812 96.28125 166.304688 96.363281 C 165.71875 96.476562 165.1875 96.789062 164.820312 97.242188 C 164.515625 97.636719 164.332031 98.105469 164.296875 98.59375 C 163.066406 98.640625 161.878906 98.613281 160.628906 98.585938 C 159.851562 98.558594 159.042969 98.542969 158.195312 98.542969 L 155.757812 98.359375 C 155.027344 98.308594 154.292969 98.558594 153.75 99.066406 C 153.21875 99.5625 152.902344 100.269531 152.902344 101.011719 L 152.902344 111.246094 C 152.902344 112.796875 154.011719 114.167969 155.53125 114.5 L 160.832031 115.652344 C 161.328125 115.753906 161.765625 116.050781 162.0625 116.472656 L 163.082031 117.960938 C 161.921875 121.15625 161.894531 124.59375 161.941406 125.945312 C 161.921875 126.136719 161.921875 126.339844 161.941406 126.539062 L 162.308594 130.585938 C 160.515625 130.675781 157.136719 131.101562 153.875 132.941406 C 150.109375 135.0625 147.769531 139.066406 147.769531 143.386719 L 147.769531 151.570312 L 146.410156 151.570312 L 146.363281 152.046875 C 146.339844 152.335938 145.703125 159.246094 147.777344 165.710938 C 147.804688 165.832031 147.875 165.980469 148.03125 166.148438 C 148.371094 166.488281 149.324219 167 151.875 167.515625 L 151.875 175.324219 C 151.875 176.308594 152.675781 177.113281 153.671875 177.113281 L 153.996094 177.113281 L 154.371094 170.160156 L 154.746094 177.113281 L 156.125 177.113281 L 156.5 170.160156 L 156.886719 177.113281 L 158.253906 177.113281 L 158.632812 170.160156 L 159.007812 177.113281 L 159.574219 177.113281 C 160.5625 177.113281 161.363281 176.308594 161.363281 175.324219 L 161.363281 168.660156 C 167.222656 169.09375 175.601562 169.402344 187.597656 169.402344 C 199.59375 169.402344 207.976562 169.09375 213.832031 168.660156 L 213.832031 175.324219 C 213.832031 176.308594 214.636719 177.113281 215.625 177.113281 L 215.957031 177.113281 L 216.332031 170.160156 L 216.707031 177.113281 L 218.085938 177.113281 L 218.460938 170.160156 L 218.835938 177.113281 L 220.214844 177.113281 L 220.589844 170.160156 L 220.964844 177.113281 L 221.527344 177.113281 C 222.519531 177.113281 223.324219 176.308594 223.324219 175.324219 L 223.324219 167.515625 C 225.875 167 226.824219 166.488281 227.164062 166.148438 C 227.324219 165.980469 227.390625 165.832031 227.417969 165.710938 C 229.496094 159.246094 228.859375 152.335938 228.832031 152.046875 " fill-opacity="1" fill-rule="nonzero"/></g><path fill="#000000" d="M 149.820312 142.714844 C 150.207031 141.359375 150.710938 140.105469 151.4375 138.988281 C 152.152344 137.863281 153.070312 136.902344 154.109375 136.074219 C 154.613281 135.65625 155.175781 135.289062 155.75 134.941406 C 156.316406 134.582031 156.921875 134.285156 157.523438 133.988281 C 158.753906 133.414062 160.027344 132.925781 161.363281 132.507812 C 159.957031 132.488281 158.5625 132.769531 157.21875 133.230469 C 156.535156 133.449219 155.890625 133.746094 155.253906 134.078125 C 154.625 134.417969 154.023438 134.808594 153.453125 135.253906 C 152.320312 136.144531 151.359375 137.285156 150.722656 138.578125 C 150.074219 139.878906 149.761719 141.308594 149.820312 142.714844 " fill-opacity="1" fill-rule="nonzero"/><path fill="#000000" d="M 219.449219 134.941406 C 220.023438 135.289062 220.574219 135.65625 221.089844 136.074219 C 222.128906 136.902344 223.042969 137.863281 223.761719 138.988281 C 224.476562 140.105469 224.992188 141.359375 225.375 142.714844 C 225.429688 141.308594 225.121094 139.878906 224.476562 138.578125 C 223.839844 137.285156 222.878906 136.144531 221.742188 135.253906 C 221.175781 134.808594 220.574219 134.417969 219.945312 134.078125 C 219.308594 133.746094 218.660156 133.449219 217.980469 133.230469 C 216.636719 132.769531 215.238281 132.488281 213.832031 132.507812 C 215.167969 132.925781 216.445312 133.414062 217.675781 133.988281 C 218.277344 134.285156 218.878906 134.582031 219.449219 134.941406 " fill-opacity="1" fill-rule="nonzero"/><path fill="#000000" d="M 157.3125 146.175781 C 158.28125 146.175781 159.078125 146.960938 159.078125 147.9375 C 159.078125 148.90625 158.28125 149.703125 157.3125 149.703125 C 156.335938 149.703125 155.550781 148.90625 155.550781 147.9375 C 155.550781 146.960938 156.335938 146.175781 157.3125 146.175781 Z M 157.3125 150.050781 C 158.472656 150.050781 159.425781 149.097656 159.425781 147.9375 C 159.425781 146.769531 158.472656 145.820312 157.3125 145.820312 C 156.144531 145.820312 155.191406 146.769531 155.191406 147.9375 C 155.191406 149.097656 156.144531 150.050781 157.3125 150.050781 " fill-opacity="1" fill-rule="nonzero"/><path fill="#000000" d="M 158.28125 148.199219 C 158.28125 148.671875 158.0625 149.089844 157.722656 149.371094 C 158.34375 149.1875 158.796875 148.621094 158.796875 147.9375 C 158.796875 147.109375 158.132812 146.449219 157.3125 146.449219 C 156.972656 146.449219 156.667969 146.5625 156.414062 146.753906 C 156.527344 146.71875 156.648438 146.699219 156.773438 146.699219 C 157.601562 146.699219 158.28125 147.371094 158.28125 148.199219 " fill-opacity="1" fill-rule="nonzero"/><path fill="#000000" d="M 151.429688 145.582031 C 152.363281 145.582031 153.132812 146.378906 153.132812 147.363281 C 153.132812 148.339844 152.363281 149.132812 151.429688 149.132812 C 150.484375 149.132812 149.726562 148.339844 149.726562 147.363281 C 149.726562 146.378906 150.484375 145.582031 151.429688 145.582031 Z M 151.429688 149.484375 C 152.554688 149.484375 153.480469 148.53125 153.480469 147.363281 C 153.480469 146.1875 152.554688 145.234375 151.429688 145.234375 C 150.292969 145.234375 149.367188 146.1875 149.367188 147.363281 C 149.367188 148.53125 150.292969 149.484375 151.429688 149.484375 " fill-opacity="1" fill-rule="nonzero"/><path fill="#000000" d="M 152.285156 147.625 C 152.285156 148.132812 152.046875 148.585938 151.683594 148.855469 C 152.371094 148.734375 152.886719 148.105469 152.886719 147.363281 C 152.886719 146.515625 152.230469 145.835938 151.429688 145.835938 C 151.097656 145.835938 150.800781 145.949219 150.5625 146.132812 C 150.644531 146.117188 150.730469 146.105469 150.816406 146.105469 C 151.628906 146.105469 152.285156 146.789062 152.285156 147.625 " fill-opacity="1" fill-rule="nonzero"/><path fill="#000000" d="M 219.621094 147.9375 C 219.621094 148.90625 218.828125 149.703125 217.859375 149.703125 C 216.882812 149.703125 216.09375 148.90625 216.09375 147.9375 C 216.09375 146.960938 216.882812 146.175781 217.859375 146.175781 C 218.828125 146.175781 219.621094 146.960938 219.621094 147.9375 Z M 215.746094 147.9375 C 215.746094 149.097656 216.6875 150.050781 217.859375 150.050781 C 219.027344 150.050781 219.972656 149.097656 219.972656 147.9375 C 219.972656 146.769531 219.027344 145.820312 217.859375 145.820312 C 216.6875 145.820312 215.746094 146.769531 215.746094 147.9375 " fill-opacity="1" fill-rule="nonzero"/><path fill="#000000" d="M 216.367188 147.9375 C 216.367188 148.621094 216.820312 149.1875 217.441406 149.371094 C 217.109375 149.089844 216.890625 148.671875 216.890625 148.199219 C 216.890625 147.371094 217.5625 146.699219 218.390625 146.699219 C 218.511719 146.699219 218.636719 146.71875 218.757812 146.753906 C 218.503906 146.5625 218.199219 146.449219 217.859375 146.449219 C 217.03125 146.449219 216.367188 147.109375 216.367188 147.9375 " fill-opacity="1" fill-rule="nonzero"/><path fill="#000000" d="M 223.742188 145.582031 C 224.675781 145.582031 225.445312 146.378906 225.445312 147.363281 C 225.445312 148.339844 224.675781 149.132812 223.742188 149.132812 C 222.800781 149.132812 222.039062 148.339844 222.039062 147.363281 C 222.039062 146.378906 222.800781 145.582031 223.742188 145.582031 Z M 223.742188 149.484375 C 224.878906 149.484375 225.792969 148.53125 225.792969 147.363281 C 225.792969 146.1875 224.878906 145.234375 223.742188 145.234375 C 222.609375 145.234375 221.691406 146.1875 221.691406 147.363281 C 221.691406 148.53125 222.609375 149.484375 223.742188 149.484375 " fill-opacity="1" fill-rule="nonzero"/><path fill="#000000" d="M 223.480469 148.855469 C 223.125 148.585938 222.878906 148.132812 222.878906 147.625 C 222.878906 146.789062 223.542969 146.105469 224.34375 146.105469 C 224.433594 146.105469 224.519531 146.117188 224.605469 146.132812 C 224.363281 145.949219 224.066406 145.835938 223.742188 145.835938 C 222.929688 145.835938 222.277344 146.515625 222.277344 147.363281 C 222.277344 148.105469 222.800781 148.734375 223.480469 148.855469 " fill-opacity="1" fill-rule="nonzero"/><path fill="#000000" d="M 156.371094 111.480469 L 156.003906 111.410156 C 155.882812 111.386719 155.742188 111.332031 155.636719 111.253906 C 155.402344 111.089844 155.269531 110.78125 155.289062 110.519531 C 155.269531 109.542969 155.269531 108.574219 155.277344 107.605469 C 155.289062 106.640625 155.304688 105.660156 155.339844 104.691406 C 155.382812 103.726562 155.425781 102.746094 155.503906 101.78125 C 155.566406 102.757812 155.59375 103.726562 155.609375 104.691406 C 155.636719 105.671875 155.636719 106.640625 155.628906 107.605469 C 155.609375 108.585938 155.601562 109.550781 155.558594 110.519531 C 155.53125 110.738281 155.609375 110.941406 155.769531 111.078125 C 155.847656 111.140625 155.941406 111.183594 156.054688 111.21875 L 156.40625 111.316406 C 156.867188 111.453125 157.339844 111.578125 157.800781 111.734375 C 157.320312 111.65625 156.839844 111.566406 156.371094 111.480469 Z M 158.394531 100.417969 L 156.1875 100.078125 C 155.820312 100.027344 155.460938 100.128906 155.191406 100.367188 C 154.910156 100.601562 154.753906 100.941406 154.753906 101.300781 L 154.753906 110.765625 C 154.753906 111.375 155.199219 111.898438 155.800781 111.988281 L 158.054688 112.335938 C 158.378906 112.386719 158.699219 112.292969 158.945312 112.082031 C 159.191406 111.875 159.339844 111.566406 159.339844 111.238281 L 159.339844 101.519531 C 159.339844 100.96875 158.9375 100.503906 158.394531 100.417969 " fill-opacity="1" fill-rule="nonzero"/><path fill="#000000" d="M 218.730469 111.316406 L 219.082031 111.21875 C 219.195312 111.183594 219.28125 111.140625 219.367188 111.078125 C 219.527344 110.941406 219.597656 110.738281 219.578125 110.519531 C 219.535156 109.550781 219.515625 108.585938 219.507812 107.605469 C 219.5 106.640625 219.5 105.671875 219.515625 104.691406 C 219.535156 103.726562 219.5625 102.757812 219.632812 101.78125 C 219.710938 102.746094 219.753906 103.726562 219.789062 104.691406 C 219.832031 105.660156 219.847656 106.640625 219.859375 107.605469 C 219.867188 108.574219 219.867188 109.542969 219.839844 110.519531 C 219.859375 110.78125 219.726562 111.089844 219.5 111.253906 C 219.394531 111.332031 219.246094 111.386719 219.125 111.410156 L 218.765625 111.480469 C 218.285156 111.566406 217.816406 111.65625 217.324219 111.734375 C 217.796875 111.578125 218.261719 111.453125 218.730469 111.316406 Z M 217.082031 112.335938 L 219.324219 111.988281 C 219.9375 111.898438 220.382812 111.375 220.382812 110.765625 L 220.382812 101.300781 C 220.382812 100.941406 220.226562 100.601562 219.945312 100.367188 C 219.675781 100.128906 219.308594 100.027344 218.949219 100.078125 L 216.742188 100.417969 C 216.199219 100.503906 215.796875 100.96875 215.796875 101.519531 L 215.796875 111.238281 C 215.796875 111.566406 215.9375 111.875 216.183594 112.082031 C 216.4375 112.292969 216.757812 112.386719 217.082031 112.335938 " fill-opacity="1" fill-rule="nonzero"/><path fill="#000000" d="M 183.417969 88.484375 C 184.542969 88.484375 185.46875 89.304688 185.644531 90.386719 C 185.609375 89.191406 184.621094 88.222656 183.417969 88.222656 C 182.210938 88.222656 181.226562 89.191406 181.191406 90.386719 C 181.355469 89.304688 182.289062 88.484375 183.417969 88.484375 " fill-opacity="1" fill-rule="nonzero"/><path fill="#000000" d="M 182.097656 89.96875 C 182.535156 90.035156 182.980469 90.054688 183.417969 90.054688 C 183.855469 90.054688 184.296875 90.035156 184.734375 89.96875 C 184.296875 89.898438 183.855469 89.878906 183.417969 89.878906 C 182.980469 89.878906 182.535156 89.898438 182.097656 89.96875 " fill-opacity="1" fill-rule="nonzero"/><path fill="#000000" d="M 182.097656 90.605469 C 182.535156 90.671875 182.980469 90.683594 183.417969 90.691406 C 183.855469 90.683594 184.296875 90.671875 184.734375 90.605469 C 184.296875 90.535156 183.855469 90.515625 183.417969 90.515625 C 182.980469 90.515625 182.535156 90.535156 182.097656 90.605469 " fill-opacity="1" fill-rule="nonzero"/><path fill="#000000" d="M 182.097656 91.242188 C 182.535156 91.300781 182.980469 91.320312 183.417969 91.328125 C 183.855469 91.320312 184.296875 91.308594 184.734375 91.242188 C 184.296875 91.171875 183.855469 91.152344 183.417969 91.152344 C 182.980469 91.152344 182.535156 91.171875 182.097656 91.242188 " fill-opacity="1" fill-rule="nonzero"/><path fill="#000000" d="M 174.695312 90.742188 C 175.488281 90.742188 176.144531 91.328125 176.257812 92.085938 C 176.242188 91.242188 175.550781 90.558594 174.695312 90.558594 C 173.847656 90.558594 173.160156 91.242188 173.132812 92.085938 C 173.253906 91.328125 173.910156 90.742188 174.695312 90.742188 " fill-opacity="1" fill-rule="nonzero"/><path fill="#000000" d="M 173.769531 91.789062 C 174.085938 91.859375 174.390625 91.878906 174.695312 91.878906 C 175.007812 91.878906 175.316406 91.859375 175.628906 91.789062 C 175.316406 91.71875 175.007812 91.703125 174.695312 91.703125 C 174.390625 91.703125 174.085938 91.71875 173.769531 91.789062 " fill-opacity="1" fill-rule="nonzero"/><path fill="#000000" d="M 173.769531 92.234375 C 174.085938 92.304688 174.390625 92.324219 174.695312 92.324219 C 175.007812 92.324219 175.316406 92.304688 175.628906 92.234375 C 175.316406 92.164062 175.007812 92.148438 174.695312 92.148438 C 174.390625 92.148438 174.085938 92.164062 173.769531 92.234375 " fill-opacity="1" fill-rule="nonzero"/><path fill="#000000" d="M 173.769531 92.679688 C 174.085938 92.75 174.390625 92.765625 174.695312 92.765625 C 175.007812 92.765625 175.316406 92.75 175.628906 92.679688 C 175.316406 92.609375 175.007812 92.601562 174.695312 92.59375 C 174.390625 92.601562 174.085938 92.609375 173.769531 92.679688 " fill-opacity="1" fill-rule="nonzero"/><path fill="#000000" d="M 200.503906 90.742188 C 201.289062 90.742188 201.941406 91.328125 202.054688 92.085938 C 202.039062 91.242188 201.347656 90.558594 200.503906 90.558594 C 199.648438 90.558594 198.957031 91.242188 198.941406 92.085938 C 199.054688 91.328125 199.707031 90.742188 200.503906 90.742188 " fill-opacity="1" fill-rule="nonzero"/><path fill="#000000" d="M 199.570312 91.789062 C 199.882812 91.859375 200.1875 91.878906 200.503906 91.878906 C 200.808594 91.878906 201.113281 91.859375 201.429688 91.789062 C 201.113281 91.71875 200.808594 91.703125 200.503906 91.703125 C 200.1875 91.703125 199.882812 91.71875 199.570312 91.789062 " fill-opacity="1" fill-rule="nonzero"/><path fill="#000000" d="M 199.570312 92.234375 C 199.882812 92.304688 200.1875 92.324219 200.503906 92.324219 C 200.808594 92.324219 201.113281 92.304688 201.429688 92.234375 C 201.113281 92.164062 200.808594 92.148438 200.503906 92.148438 C 200.1875 92.148438 199.882812 92.164062 199.570312 92.234375 " fill-opacity="1" fill-rule="nonzero"/><path fill="#000000" d="M 199.570312 92.679688 C 199.882812 92.75 200.1875 92.765625 200.503906 92.765625 C 200.808594 92.765625 201.113281 92.75 201.429688 92.679688 C 201.113281 92.609375 200.808594 92.601562 200.503906 92.59375 C 200.1875 92.601562 199.882812 92.609375 199.570312 92.679688 " fill-opacity="1" fill-rule="nonzero"/><path fill="#000000" d="M 191.78125 88.484375 C 192.90625 88.484375 193.839844 89.304688 194.007812 90.386719 C 193.972656 89.191406 192.996094 88.222656 191.78125 88.222656 C 190.566406 88.222656 189.589844 89.191406 189.554688 90.386719 C 189.71875 89.304688 190.65625 88.484375 191.78125 88.484375 " fill-opacity="1" fill-rule="nonzero"/><path fill="#000000" d="M 190.460938 89.96875 C 190.898438 90.035156 191.34375 90.054688 191.78125 90.054688 C 192.21875 90.054688 192.664062 90.035156 193.097656 89.96875 C 192.664062 89.898438 192.21875 89.878906 191.78125 89.878906 C 191.34375 89.878906 190.898438 89.898438 190.460938 89.96875 " fill-opacity="1" fill-rule="nonzero"/><path fill="#000000" d="M 190.460938 90.605469 C 190.898438 90.671875 191.34375 90.683594 191.78125 90.691406 C 192.21875 90.683594 192.664062 90.671875 193.097656 90.605469 C 192.664062 90.535156 192.21875 90.515625 191.78125 90.515625 C 191.34375 90.515625 190.898438 90.535156 190.460938 90.605469 " fill-opacity="1" fill-rule="nonzero"/><path fill="#000000" d="M 190.460938 91.242188 C 190.898438 91.300781 191.34375 91.320312 191.78125 91.328125 C 192.21875 91.320312 192.664062 91.308594 193.097656 91.242188 C 192.664062 91.171875 192.21875 91.152344 191.78125 91.152344 C 191.34375 91.152344 190.898438 91.171875 190.460938 91.242188 " fill-opacity="1" fill-rule="nonzero"/><g clip-path="url(#id2)"><path fill="#000000" d="M 75.847656 177.164062 C 94.472656 176.109375 113.101562 175.550781 131.722656 175.175781 C 141.039062 174.941406 150.347656 174.886719 159.660156 174.75 L 187.597656 174.609375 L 215.535156 174.738281 C 224.851562 174.878906 234.160156 174.921875 243.472656 175.167969 C 262.097656 175.542969 280.726562 176.101562 299.347656 177.164062 C 280.726562 178.230469 262.097656 178.789062 243.472656 179.164062 C 234.160156 179.398438 224.851562 179.449219 215.535156 179.589844 L 187.597656 179.722656 L 159.660156 179.582031 C 150.347656 179.441406 141.039062 179.390625 131.722656 179.15625 C 113.101562 178.78125 94.472656 178.222656 75.847656 177.164062 " fill-opacity="1" fill-rule="nonzero"/></g><path fill="#000000" d="M 273.507812 156.566406 L 238.3125 156.566406 L 238.3125 154.972656 L 273.507812 154.972656 L 273.507812 156.566406 " fill-opacity="1" fill-rule="nonzero"/><path fill="#000000" d="M 273.507812 142.792969 L 238.3125 142.792969 L 238.3125 141.203125 L 273.507812 141.203125 L 273.507812 142.792969 " fill-opacity="1" fill-rule="nonzero"/><path fill="#000000" d="M 136.097656 155.667969 L 100.90625 155.667969 L 100.90625 154.074219 L 136.097656 154.074219 L 136.097656 155.667969 " fill-opacity="1" fill-rule="nonzero"/><path fill="#000000" d="M 136.097656 141.894531 L 100.90625 141.894531 L 100.90625 140.304688 L 136.097656 140.304688 L 136.097656 141.894531 " fill-opacity="1" fill-rule="nonzero"/><g fill="#000000" fill-opacity="1"><g transform="translate(125.751895, 225.432348)"><g><path d="M 1.796875 -31.265625 C 1.40625 -31.265625 1.171875 -31.03125 1.171875 -30.640625 L 1.171875 -26.734375 C 1.171875 -26.339844 1.40625 -26.105469 1.796875 -26.105469 L 6.332031 -26.105469 L 6.332031 -0.625 C 6.332031 -0.195312 6.566406 0 6.957031 0 L 11.019531 0 C 11.453125 0 11.648438 -0.195312 11.648438 -0.625 L 11.648438 -26.105469 L 16.179688 -26.105469 C 16.609375 -26.105469 16.804688 -26.339844 16.804688 -26.734375 L 16.804688 -30.640625 C 16.804688 -31.03125 16.609375 -31.265625 16.179688 -31.265625 Z M 1.796875 -31.265625 "/></g></g></g><g fill="#000000" fill-opacity="1"><g transform="translate(150.100898, 225.432348)"><g><path d="M 18.015625 -25.636719 C 18.015625 -29.3125 16.0625 -31.265625 12.390625 -31.265625 L 2.578125 -31.265625 C 2.1875 -31.265625 1.953125 -31.03125 1.953125 -30.640625 L 1.953125 -0.625 C 1.953125 -0.234375 2.1875 0 2.578125 0 L 6.644531 0 C 7.035156 0 7.269531 -0.234375 7.269531 -0.625 L 7.269531 -10.472656 L 9.964844 -10.472656 L 12.585938 -0.546875 C 12.664062 -0.195312 12.859375 0 13.25 0 L 17.3125 0 C 17.742188 0 17.976562 -0.234375 17.859375 -0.703125 L 15.164062 -10.941406 C 17.039062 -11.765625 18.015625 -13.484375 18.015625 -16.101562 Z M 7.269531 -15.632812 L 7.269531 -26.105469 L 11.136719 -26.105469 C 12.15625 -26.105469 12.703125 -25.558594 12.703125 -24.542969 L 12.703125 -17.195312 C 12.703125 -16.179688 12.15625 -15.632812 11.136719 -15.632812 Z M 7.269531 -15.632812 "/></g></g></g><g fill="#000000" fill-opacity="1"><g transform="translate(176.443084, 225.432348)"><g><path d="M 13.210938 -31.265625 C 12.78125 -31.265625 12.429688 -30.914062 12.429688 -30.484375 L 12.429688 -6.722656 C 12.429688 -5.667969 11.882812 -5.160156 10.863281 -5.160156 L 8.832031 -5.160156 C 7.816406 -5.160156 7.269531 -5.667969 7.269531 -6.722656 L 7.269531 -30.484375 C 7.269531 -30.914062 6.917969 -31.265625 6.488281 -31.265625 L 2.734375 -31.265625 C 2.304688 -31.265625 1.953125 -30.914062 1.953125 -30.484375 L 1.953125 -5.628906 C 1.953125 -1.953125 3.910156 0 7.582031 0 L 11.960938 0 C 15.632812 0 17.585938 -1.953125 17.585938 -5.628906 L 17.585938 -30.484375 C 17.585938 -30.914062 17.234375 -31.265625 16.804688 -31.265625 Z M 13.210938 -31.265625 "/></g></g></g><g fill="#000000" fill-opacity="1"><g transform="translate(202.355362, 225.432348)"><g><path d="M 17.625 -25.636719 C 17.625 -29.3125 15.632812 -31.265625 12 -31.265625 L 7.621094 -31.265625 C 3.949219 -31.265625 1.953125 -29.3125 1.953125 -25.636719 L 1.953125 -5.628906 C 1.953125 -1.953125 3.949219 0 7.621094 0 L 12 0 C 15.632812 0 17.625 -1.953125 17.625 -5.628906 L 17.625 -9.847656 C 17.625 -10.238281 17.390625 -10.472656 17 -10.472656 L 13.09375 -10.472656 C 12.664062 -10.472656 12.46875 -10.238281 12.46875 -9.847656 L 12.46875 -6.722656 C 12.46875 -5.667969 11.921875 -5.160156 10.902344 -5.160156 L 8.871094 -5.160156 C 7.855469 -5.160156 7.308594 -5.667969 7.308594 -6.722656 L 7.308594 -24.542969 C 7.308594 -25.558594 7.816406 -26.105469 8.871094 -26.105469 L 10.902344 -26.105469 C 11.921875 -26.105469 12.46875 -25.558594 12.46875 -24.542969 L 12.46875 -21.417969 C 12.46875 -21.027344 12.664062 -20.792969 13.09375 -20.792969 L 17 -20.792969 C 17.390625 -20.792969 17.625 -21.027344 17.625 -21.417969 Z M 17.625 -25.636719 "/></g></g></g><g fill="#000000" fill-opacity="1"><g transform="translate(228.306721, 225.432348)"><g><path d="M 18.679688 0 C 19.308594 0 19.542969 -0.390625 19.269531 -0.898438 L 12.195312 -16.6875 L 18.835938 -30.328125 C 19.113281 -30.875 18.875 -31.265625 18.289062 -31.265625 L 14.1875 -31.265625 C 13.757812 -31.265625 13.484375 -31.070312 13.289062 -30.679688 L 7.269531 -18.367188 L 7.269531 -30.484375 C 7.269531 -30.992188 6.996094 -31.265625 6.488281 -31.265625 L 2.734375 -31.265625 C 2.226562 -31.265625 1.953125 -30.992188 1.953125 -30.484375 L 1.953125 -0.78125 C 1.953125 -0.273438 2.226562 0 2.734375 0 L 6.488281 0 C 6.996094 0 7.269531 -0.273438 7.269531 -0.78125 L 7.269531 -9.417969 L 8.714844 -12.195312 L 13.640625 -0.585938 C 13.796875 -0.195312 14.070312 0 14.539062 0 Z M 18.679688 0 "/></g></g></g><g fill="#6d2c92" fill-opacity="1"><g transform="translate(105.982365, 258.432345)"><g><path d="M 15.949219 -23.855469 C 15.539062 -23.855469 15.300781 -23.652344 15.199219 -23.277344 L 11.417969 -8.078125 L 7.632812 -23.277344 C 7.53125 -23.652344 7.292969 -23.855469 6.882812 -23.855469 L 2.386719 -23.855469 C 1.941406 -23.855469 1.703125 -23.617188 1.703125 -23.175781 L 1.703125 -0.679688 C 1.703125 -0.238281 1.941406 0 2.386719 0 L 5.519531 0 C 5.964844 0 6.203125 -0.238281 6.203125 -0.679688 L 6.203125 -14.074219 L 6.441406 -14.074219 L 9.644531 -0.578125 C 9.746094 -0.203125 9.984375 0 10.394531 0 L 12.40625 0 C 12.8125 0 13.050781 -0.203125 13.15625 -0.578125 L 16.359375 -14.074219 L 16.597656 -14.074219 L 16.597656 -0.679688 C 16.597656 -0.238281 16.835938 0 17.277344 0 L 20.449219 0 C 20.890625 0 21.128906 -0.238281 21.128906 -0.679688 L 21.128906 -23.175781 C 21.128906 -23.617188 20.890625 -23.855469 20.449219 -23.855469 Z M 15.949219 -23.855469 "/></g></g></g><g fill="#6d2c92" fill-opacity="1"><g transform="translate(134.370995, 258.432345)"><g><path d="M 17.789062 0 C 18.199219 0 18.367188 -0.203125 18.265625 -0.578125 L 12.609375 -23.378906 C 12.542969 -23.71875 12.335938 -23.855469 12.03125 -23.855469 L 7.292969 -23.855469 C 6.988281 -23.855469 6.78125 -23.71875 6.714844 -23.378906 L 1.054688 -0.578125 C 0.953125 -0.203125 1.125 0 1.5 0 L 4.839844 0 C 5.144531 0 5.316406 -0.171875 5.382812 -0.476562 L 6.441406 -4.769531 L 12.847656 -4.769531 L 13.9375 -0.476562 C 14.007812 -0.171875 14.175781 0 14.484375 0 Z M 11.792969 -8.722656 L 7.496094 -8.722656 L 9.644531 -17.996094 Z M 11.792969 -8.722656 "/></g></g></g><g fill="#882d84" fill-opacity="1"><g transform="translate(159.24408, 258.432345)"><g><path d="M 12.507812 -23.855469 C 12.132812 -23.855469 11.960938 -23.652344 11.960938 -23.3125 L 11.960938 -10.394531 L 5.554688 -23.414062 C 5.417969 -23.71875 5.25 -23.855469 4.941406 -23.855469 L 2.25 -23.855469 C 1.910156 -23.855469 1.703125 -23.652344 1.703125 -23.3125 L 1.703125 -0.546875 C 1.703125 -0.203125 1.910156 0 2.25 0 L 5.453125 0 C 5.828125 0 6 -0.203125 6 -0.546875 L 6 -13.460938 L 12.40625 -0.441406 C 12.542969 -0.136719 12.710938 0 13.019531 0 L 15.710938 0 C 16.050781 0 16.257812 -0.203125 16.257812 -0.546875 L 16.257812 -23.3125 C 16.257812 -23.652344 16.050781 -23.855469 15.710938 -23.855469 Z M 12.507812 -23.855469 "/></g></g></g><g fill="#882d84" fill-opacity="1"><g transform="translate(182.75953, 258.432345)"><g><path d="M 17.789062 0 C 18.199219 0 18.367188 -0.203125 18.265625 -0.578125 L 12.609375 -23.378906 C 12.542969 -23.71875 12.335938 -23.855469 12.03125 -23.855469 L 7.292969 -23.855469 C 6.988281 -23.855469 6.78125 -23.71875 6.714844 -23.378906 L 1.054688 -0.578125 C 0.953125 -0.203125 1.125 0 1.5 0 L 4.839844 0 C 5.144531 0 5.316406 -0.171875 5.382812 -0.476562 L 6.441406 -4.769531 L 12.847656 -4.769531 L 13.9375 -0.476562 C 14.007812 -0.171875 14.175781 0 14.484375 0 Z M 11.792969 -8.722656 L 7.496094 -8.722656 L 9.644531 -17.996094 Z M 11.792969 -8.722656 "/></g></g></g><g fill="#b52e6d" fill-opacity="1"><g transform="translate(207.630799, 258.432345)"><g><path d="M 1.703125 -4.90625 C 1.703125 -1.703125 3.40625 0 6.613281 0 L 10.429688 0 C 13.597656 0 15.335938 -1.703125 15.335938 -4.90625 L 15.335938 -12.679688 C 15.335938 -13.050781 15.132812 -13.222656 14.789062 -13.222656 L 9.269531 -13.222656 C 8.894531 -13.222656 8.722656 -13.050781 8.722656 -12.679688 L 8.722656 -9.269531 C 8.722656 -8.929688 8.894531 -8.722656 9.269531 -8.722656 L 11.042969 -8.722656 L 11.042969 -5.757812 C 11.042969 -4.839844 10.566406 -4.394531 9.679688 -4.394531 L 7.496094 -4.394531 C 6.613281 -4.394531 6.132812 -4.839844 6.132812 -5.757812 L 6.132812 -18.097656 C 6.132812 -18.984375 6.578125 -19.460938 7.496094 -19.460938 L 9.679688 -19.460938 C 10.566406 -19.460938 11.042969 -18.984375 11.042969 -18.097656 L 11.042969 -16.425781 C 11.042969 -16.085938 11.210938 -15.882812 11.585938 -15.882812 L 14.789062 -15.882812 C 15.132812 -15.882812 15.335938 -16.085938 15.335938 -16.425781 L 15.335938 -18.949219 C 15.335938 -22.152344 13.597656 -23.855469 10.429688 -23.855469 L 6.613281 -23.855469 C 3.40625 -23.855469 1.703125 -22.152344 1.703125 -18.949219 Z M 1.703125 -4.90625 "/></g></g></g><g fill="#b52e6d" fill-opacity="1"><g transform="translate(230.226133, 258.432345)"><g><path d="M 15.300781 -23.3125 C 15.300781 -23.652344 15.164062 -23.855469 14.757812 -23.855469 L 2.214844 -23.855469 C 1.910156 -23.855469 1.703125 -23.652344 1.703125 -23.3125 L 1.703125 -0.546875 C 1.703125 -0.203125 1.910156 0 2.214844 0 L 14.757812 0 C 15.164062 0 15.300781 -0.203125 15.300781 -0.546875 L 15.300781 -3.953125 C 15.300781 -4.328125 15.164062 -4.5 14.757812 -4.5 L 6.339844 -4.5 L 6.339844 -9.542969 L 12.746094 -9.542969 C 13.085938 -9.542969 13.292969 -9.746094 13.292969 -10.121094 L 13.292969 -13.496094 C 13.292969 -13.871094 13.085938 -14.074219 12.746094 -14.074219 L 6.339844 -14.074219 L 6.339844 -19.324219 L 14.757812 -19.324219 C 15.164062 -19.324219 15.300781 -19.5625 15.300781 -19.902344 Z M 15.300781 -23.3125 "/></g></g></g><g fill="#c92f62" fill-opacity="1"><g transform="translate(252.783136, 258.432345)"><g><path d="M 15.335938 -18.949219 C 15.335938 -22.152344 13.632812 -23.855469 10.429688 -23.855469 L 2.25 -23.855469 C 1.910156 -23.855469 1.703125 -23.652344 1.703125 -23.3125 L 1.703125 -0.546875 C 1.703125 -0.203125 1.910156 0 2.25 0 L 5.589844 0 C 5.929688 0 6.132812 -0.203125 6.132812 -0.546875 L 6.132812 -7.191406 L 9.167969 -7.191406 L 10.804688 -0.476562 C 10.871094 -0.171875 11.042969 0 11.382812 0 L 14.722656 0 C 15.097656 0 15.300781 -0.203125 15.199219 -0.613281 L 13.425781 -7.941406 C 14.6875 -8.722656 15.335938 -10.121094 15.335938 -12.097656 Z M 6.132812 -11.585938 L 6.132812 -19.460938 L 9.542969 -19.460938 C 10.429688 -19.460938 10.90625 -18.984375 10.90625 -18.097656 L 10.90625 -12.949219 C 10.90625 -12.0625 10.429688 -11.585938 9.542969 -11.585938 Z M 6.132812 -11.585938 "/></g></g></g></svg>